<?xml version="1.0" standalone="no"?><!DOCTYPE svg PUBLIC "-//W3C//DTD SVG 1.1//EN" "http://www.w3.org/Graphics/SVG/1.1/DTD/svg11.dtd"><svg t="1620269569390" class="icon" viewBox="0 0 1024 1024" version="1.1" xmlns="http://www.w3.org/2000/svg" p-id="12543" xmlns:xlink="http://www.w3.org/1999/xlink" width="200" height="200"><defs><style type="text/css"></style></defs><path d="M174.4 0L0 196.8l544 278.4 35.2-252.8-48-145.6L174.4 0z" fill="#FF318C" p-id="12544"></path><path d="M97.6 784l312-3.2v-176l-11.2-304L0 196.8 97.6 784z" fill="#6F56FF" p-id="12545"></path><path d="M342.4 358.4l-19.2 241.6L516.8 688l142.4-147.2 225.6 36.8 139.2-137.6-132.8-331.2-259.2-48-289.6 297.6z" fill="#7555FE" p-id="12546"></path><path d="M216 430.4l80 473.6L641.6 1024 1024 795.2 632 60.8l-416 369.6z" fill="#B74AF7" p-id="12547"></path><path d="M192 832h640V192H192v640z" p-id="12548"></path><path d="M256 752h240v-40H256V752zM486.88 504.48l35.2-42.24a123.84 123.84 0 0 0 80.96 32.8c24.32 0 39.04-9.6 39.04-25.44v-0.8c0-15.04-9.28-22.88-54.56-34.4-54.56-13.92-89.92-29.12-89.92-82.88 0-49.12 39.52-81.76 94.88-81.76a158.08 158.08 0 0 1 100.8 34.24l-31.04 44.96A128 128 0 0 0 592 321.6c-22.88 0-34.88 10.4-34.88 23.68v0.8c0 17.76 11.52 23.68 58.4 35.52 55.04 14.4 85.92 34.08 85.92 81.44 0 53.92-40.96 84-99.52 84a172.48 172.48 0 0 1-114.88-43.2m-127.2-96A41.12 41.12 0 0 0 405.44 368c0-26.88-17.92-41.12-46.88-41.12h-44.8v83.04zM256 272h107.36c62.72 0 100.64 38.4 100.64 94.08v0.8c0 62.88-47.2 96-106.24 96h-44V544H256z" fill="#FFFFFF" p-id="12549"></path></svg>