<?xml version="1.0" standalone="no"?><!DOCTYPE svg PUBLIC "-//W3C//DTD SVG 1.1//EN" "http://www.w3.org/Graphics/SVG/1.1/DTD/svg11.dtd"><svg t="1620271301321" class="icon" viewBox="0 0 1024 1024" version="1.1" xmlns="http://www.w3.org/2000/svg" p-id="14635" xmlns:xlink="http://www.w3.org/1999/xlink" width="200" height="200"><defs><style type="text/css"></style></defs><path d="M275.712 566.368l584.544-140.032a169336.608 169336.608 0 0 0-193.568-274.208c-16-22.368 0.352-32.8 26.336-37.12 25.952-4.448 249.6-41.984 268.704-44.768 16.096-2.336 29.44-7.552 51.712 13.088A135.68 135.68 0 0 0 888.288 0.352H136.416A135.52 135.52 0 0 0 3.168 110.528l272.544 455.84z" fill="#E74430" p-id="14636"></path><path d="M970.112 122.976c-8.8 1.888-203.296 37.088-215.264 38.688-11.936 1.568-8.032 8.288-3.168 15.136l171.136 234.752 101.152-24.864V167.776c-14.08-17.92-24.288-31.104-26.72-34.592-10.88-14.688-18.432-12.256-27.168-10.208zM1024 645.504c-49.696-68.192-103.936-142.336-109.088-149.664-7.072-10.24-10.88-12.16-27.648-6.784L317.408 637.408s174.944 303.104 188.32 322.304c13.44 19.456 21.664 17.824 32.128 13.408 7.712-3.424 332.64-113.248 486.112-165.216v-162.272l0.032-0.128z m0-100.256v-85.664l-53.344 14.24L1024 545.248z m-349.824 478.4h214.144a135.68 135.68 0 0 0 135.296-125.28 84142.592 84142.592 0 0 1-349.472 125.28zM236.672 658.336L0 720v167.936c0.736 74.976 61.472 135.776 136.32 135.776h306.944c-40.16-65.568-149.472-262.528-206.208-365.344z m-47.392-88.256L0.736 244.448V632.64l184.672-44.064c15.072-3.488 11.488-5.472 4.064-18.432z" fill="#E74430" p-id="14637"></path><path d="M966.176 467.584L1024 451.872v26.88l-39.648 13.28-18.176-24.448z" fill="#E74430" p-id="14638"></path></svg>