<?xml version="1.0" standalone="no"?><!DOCTYPE svg PUBLIC "-//W3C//DTD SVG 1.1//EN" "http://www.w3.org/Graphics/SVG/1.1/DTD/svg11.dtd"><svg t="1620271889919" class="icon" viewBox="0 0 1024 1024" version="1.1" xmlns="http://www.w3.org/2000/svg" p-id="18321" xmlns:xlink="http://www.w3.org/1999/xlink" width="200" height="200"><defs><style type="text/css"></style></defs><path d="M367.571478 472.909913l-248.208695 224.166957c-2.337391 15.293217-3.539478 30.72-3.56174 46.191304 0 154.713043 126.130087 280.576 281.110261 280.576a279.863652 279.863652 0 0 0 228.441044-117.448348l42.162087-222.252522-51.311305-97.947826-248.653913-113.307826v0.022261z" fill="#24BBB1" p-id="18322"></path><path d="M301.234087 378.034087l-182.650435-49.152C50.532174 353.28 2.359652 418.726957 0.311652 490.963478c-1.914435 66.381913 34.437565 128.645565 92.004174 160.545392l238.992696-203.798261-30.074435-69.676522z" fill="#17A8E0" p-id="18323"></path><path d="M884.802783 280.798609c0-154.423652-125.618087-280.041739-279.974957-280.041739a279.373913 279.373913 0 0 0-226.905043 116.357565l-43.297392 224.166956 44.588522 95.343305 247.229217 112.573217 254.820174-223.610435c2.337391-15.538087 3.561739-30.274783 3.561739-44.788869z" fill="#FED10A" p-id="18324"></path><path d="M700.17113 682.206609l-21.481739 209.430261a146.053565 146.053565 0 0 0 71.724522 11.686956 149.74887 149.74887 0 0 0 102.733913-53.76 148.324174 148.324174 0 0 0 33.947826-109.612522 144.584348 144.584348 0 0 0-6.277565-31.788521l-180.646957-25.933913v-0.022261z" fill="#93C83E" p-id="18325"></path><path d="M310.895304 314.546087l37.042087-206.959304a142.024348 142.024348 0 0 0-68.786087-16.851479c-80.517565 0.712348-145.430261 68.563478-144.695652 151.307131 0.089043 10.752 1.26887 21.459478 3.561739 31.988869l172.877913 40.514783z" fill="#EF5098" p-id="18326"></path><path d="M914.098087 356.062609l-238.280348 208.762434 36.953044 70.455653 185.076869 43.141565c67.383652-25.822609 113.374609-92.338087 112.973913-164.708174a177.441391 177.441391 0 0 0-96.701217-157.651478h-0.022261z" fill="#0779A1" p-id="18327"></path></svg>