<?xml version="1.0" standalone="no"?><!DOCTYPE svg PUBLIC "-//W3C//DTD SVG 1.1//EN" "http://www.w3.org/Graphics/SVG/1.1/DTD/svg11.dtd"><svg t="1620280746303" class="icon" viewBox="0 0 1024 1024" version="1.1" xmlns="http://www.w3.org/2000/svg" p-id="2006" xmlns:xlink="http://www.w3.org/1999/xlink" width="200" height="200"><defs><style type="text/css"></style></defs><path d="M623.36 453.546667h-134.4c-8.106667 0-16.213333 0-24.32-4.266667-24.32-8.106667-36.693333-24.32-32.426667-48.64 0-20.48 16.213333-36.693333 40.533334-40.533333 8.106667 0 20.48-4.266667 28.586666-4.266667h276.906667c0 4.266667-4.266667 4.266667-4.266667 8.106667-40.533333 77.226667-81.493333 150.613333-122.026666 227.84-4.266667 8.106667-8.106667 12.373333-16.213334 12.373333H387.413333c-8.106667 0-12.373333-4.266667-16.213333-12.373333-40.533333-73.386667-81.493333-142.506667-122.026667-215.893334-4.266667-8.106667-4.266667-12.373333 0-20.48C285.44 286.72 326.4 213.333333 363.093333 144.213333c4.266667-8.106667 8.106667-8.106667 16.213334-8.106666h260.266666c8.106667 0 12.373333 0 16.213334 8.106666 32.426667 52.906667 61.013333 105.813333 93.44 154.453334 0 0 0 4.266667 4.266666 8.106666h-101.546666c-4.266667 0-8.106667-4.266667-12.373334-8.106666l-36.693333-61.013334c-4.266667-8.106667-8.106667-12.373333-16.213333-12.373333h-142.506667c-8.106667 0-12.373333 4.266667-16.213333 8.106667-24.32 40.533333-44.8 85.333333-69.12 126.293333-4.266667 8.106667-4.266667 12.373333 0 16.213333l73.386666 134.4c4.266667 8.106667 8.106667 8.106667 16.213334 8.106667h130.133333c8.106667 0 12.373333-4.266667 16.213333-8.106667 12.373333-20.48 24.32-36.693333 32.426667-57.173333-7.68 8.533333-7.68 4.266667-3.84 0.426667z m0 0M91.733333 873.813333V729.6s0.426667-25.6 26.88-14.08l112.213334 109.653333 0.426666-90.88s-2.133333-24.32 23.04-20.906666c0 0 12.8 5.546667 12.373334 15.786666l0.853333 138.666667s0 26.88-26.453333 18.773333l-112.64-111.786666v97.706666s-2.56 17.066667-20.48 15.786667c-0.426667-0.426667-11.52-2.56-16.213334-14.506667zM466.773333 777.813333l-27.306666-65.706666-105.813334 0.426666-46.08 83.626667s-4.693333 4.693333 0 9.386667l42.24 75.52s2.56 5.973333 5.973334 5.973333h96.853333s2.133333 1.28 3.84-3.413333l44.8-91.306667-104.96 0.426667s-18.773333 2.986667-16.213333 22.613333c0 0 5.12 13.653333 16.213333 13.653333l41.813333-0.426666s7.68-0.853333 3.413334 3.84l-9.386667 18.773333H358.826667s-5.12 0.853333-6.4-3.84l-24.746667-43.093333s-2.56-4.693333 0-6.826667l24.32-43.52s1.706667-7.253333 7.68-5.12h48.213333s8.96-1.706667 11.52 6.4l10.24 21.76s0.426667 0.853333 2.56 1.28l34.56-0.426667zM504.32 778.666667h27.733333s4.693333 0.426667 5.546667-2.56v-43.093334s1.28-20.48-20.906667-20.053333c0 0-13.226667 1.706667-15.36 17.066667v46.08c-0.426667 0-0.853333 2.56 2.986667 2.56zM503.893333 793.173333h29.013334s3.84-1.706667 3.84 4.266667v70.826667s1.706667 13.653333-14.08 19.2c0 0-12.8 2.986667-20.906667-11.093334 0 0-1.706667-5.973333-1.28-11.946666v-64.853334c0 0.426667-0.853333-7.68 3.413333-6.4zM559.36 732.16s-0.426667-18.346667 19.626667-19.2c0 0 12.8 0 16.213333 13.653333l0.426667 97.706667s-0.853333 3.84 2.986666 0l104.106667-104.533333s11.52-11.093333 23.893333-4.266667c0 0 8.533333 3.413333 8.533334 17.92v136.106667s0.853333 16.213333-18.346667 17.92c0 0-13.653333 1.28-17.066667-12.8l-0.426666-99.84-110.506667 108.8s-14.08 10.24-26.453333-2.133334c0 0-4.693333-4.266667-3.84-19.626666l0.853333-129.706667zM816.64 802.133333l-51.626667 51.626667s-18.346667 14.08-1.28 30.293333c0 0 13.226667 8.106667 23.466667-1.28l52.48-52.48s4.266667-7.68 9.813333 0.853334l51.626667 51.626666s15.786667 12.8 28.586667-4.266666c0 0 5.12-9.813333-1.28-18.773334l-56.32-56.746666s-4.266667-2.56 0-5.12l57.173333-58.453334s9.386667-13.226667-6.826667-24.32c0 0-12.373333-6.4-25.6 6.4l-49.066666 48.64s-3.84 5.546667-5.973334 1.706667l-56.32-54.613333s-14.08-11.52-26.453333 3.413333c0 0-7.68 12.8 2.56 23.04l55.04 55.04c0.426667 0 2.986667 2.133333 0 3.413333z" fill="#13B706" p-id="2007"></path></svg>