<?xml version="1.0" standalone="no"?><!DOCTYPE svg PUBLIC "-//W3C//DTD SVG 1.1//EN" "http://www.w3.org/Graphics/SVG/1.1/DTD/svg11.dtd"><svg t="1620267888834" class="icon" viewBox="0 0 1024 1024" version="1.1" xmlns="http://www.w3.org/2000/svg" p-id="11680" xmlns:xlink="http://www.w3.org/1999/xlink" width="200" height="200"><defs><style type="text/css"></style></defs><path d="M585.6 320c-35.2 0-60.8-19.2-67.2-51.2-3.2-19.2 3.2-35.2 16-48 19.2-22.4 51.2-28.8 80-19.2 25.6 9.6 41.6 32 38.4 60.8 0 25.6-16 44.8-44.8 54.4-9.6 3.2-16 3.2-22.4 3.2z m-54.4-57.6c0 12.8 9.6 22.4 19.2 22.4s19.2-9.6 19.2-22.4c0-12.8-9.6-22.4-19.2-22.4-9.6 3.2-19.2 12.8-19.2 22.4z m-112-57.6C480 204.8 496 256 480 291.2c-9.6 22.4-28.8 32-54.4 35.2-32 6.4-60.8-12.8-70.4-41.6-12.8-35.2 9.6-70.4 48-80h16z m-12.8 64c0-12.8-9.6-22.4-19.2-22.4s-19.2 9.6-19.2 22.4c0 12.8 9.6 22.4 19.2 22.4s19.2-9.6 19.2-22.4z m102.4 32c6.4 0 12.8 0 19.2 3.2 9.6 3.2 12.8 12.8 9.6 19.2 0 3.2 0 3.2 3.2 6.4 6.4 3.2 9.6 6.4 16 12.8s6.4 12.8 3.2 19.2c-3.2 6.4-12.8 9.6-19.2 6.4-3.2 0-9.6-3.2-12.8-6.4-9.6-3.2-19.2-3.2-28.8 0-6.4 3.2-12.8 6.4-19.2 6.4-12.8 0-19.2-6.4-16-19.2 0-9.6 6.4-16 12.8-19.2 0 0 3.2 0 3.2-3.2-3.2-12.8 6.4-16 12.8-22.4 3.2-3.2 9.6-3.2 16-3.2z m-3.2 35.2c9.6 0 19.2-3.2 25.6-6.4 9.6-6.4 9.6-12.8 3.2-19.2-3.2-3.2-9.6-6.4-12.8-6.4-9.6-3.2-22.4 0-28.8 6.4-9.6 9.6-6.4 19.2 6.4 22.4-3.2 3.2 0 3.2 6.4 3.2z" fill="#FDFEFC" p-id="11681"></path><path d="M534.4 387.2v6.4c0 6.4-3.2 12.8-9.6 12.8-6.4 0-12.8-6.4-12.8-9.6-3.2-9.6 0-19.2 0-32 0-3.2 0-3.2 3.2-3.2 6.4 0 12.8 3.2 16 6.4 3.2 0 3.2 3.2 3.2 3.2v16z m-28.8-6.4v9.6c0 6.4-3.2 9.6-6.4 12.8-6.4 6.4-12.8 3.2-16-3.2-3.2-6.4-3.2-16-3.2-25.6 0-3.2 0-3.2 3.2-3.2 6.4-3.2 12.8-3.2 19.2-6.4 3.2 0 3.2 0 3.2 3.2v12.8z" fill="#FDFEFC" p-id="11682"></path><path d="M336 864h-6.4c-3.2-3.2-9.6-6.4-12.8-12.8-6.4-6.4-6.4-16 3.2-25.6 6.4-9.6 19.2-16 28.8-22.4-25.6-22.4-38.4-48-44.8-80-6.4-22.4-6.4-48-6.4-73.6 0-38.4 6.4-73.6 6.4-112-9.6 6.4-19.2 12.8-32 16h-6.4c-6.4-6.4-9.6-12.8-9.6-19.2 0-6.4 6.4-12.8 9.6-16 9.6-6.4 19.2-9.6 32-9.6 6.4 0 6.4-3.2 6.4-6.4-3.2-32-6.4-64-6.4-96-3.2-32-3.2-67.2 3.2-99.2 3.2-16 3.2-16-9.6-19.2-16-9.6-25.6-28.8-22.4-44.8 6.4-35.2 44.8-51.2 76.8-35.2 3.2 3.2 6.4 3.2 9.6 0 16-12.8 32-22.4 51.2-28.8 54.4-19.2 112-22.4 166.4-12.8 28.8 3.2 57.6 12.8 80 32 6.4 6.4 12.8 6.4 19.2 3.2 25.6-12.8 54.4-3.2 67.2 22.4 12.8 25.6 3.2 48-25.6 60.8-3.2 3.2-3.2 3.2-3.2 6.4 9.6 32 12.8 64 12.8 99.2 0 38.4 0 73.6 3.2 112 0 6.4 0 6.4 6.4 9.6 12.8 0 22.4 6.4 32 16 6.4 6.4 6.4 9.6 0 19.2v3.2c0 6.4-6.4 9.6-12.8 9.6s-12.8-3.2-16-6.4c-3.2 0-6.4-3.2-9.6-3.2v3.2c0 19.2 3.2 38.4 3.2 60.8 0 35.2 0 67.2-6.4 102.4-6.4 32-19.2 64-41.6 89.6-3.2 3.2-3.2 6.4 0 9.6 9.6 6.4 19.2 16 25.6 28.8 3.2 9.6 0 16-9.6 22.4-6.4 6.4-12.8 3.2-19.2 0l-12.8-12.8c-6.4-6.4-9.6-12.8-16-16-3.2-3.2-6.4-3.2-9.6 0-35.2 19.2-73.6 25.6-112 25.6-44.8 3.2-92.8-3.2-134.4-22.4h-3.2c-6.4 6.4-19.2 9.6-25.6 16-9.6-6.4-19.2 0-28.8 6.4z m249.6-544c6.4 0 16 0 22.4-3.2 25.6-9.6 41.6-28.8 44.8-54.4 0-28.8-16-51.2-38.4-60.8-25.6-9.6-60.8 0-80 19.2-12.8 12.8-19.2 28.8-16 48 6.4 32 32 51.2 67.2 51.2z m-166.4-115.2h-16c-38.4 6.4-60.8 41.6-48 80 9.6 28.8 38.4 44.8 70.4 41.6 22.4-3.2 41.6-12.8 54.4-35.2 16-35.2 0-86.4-60.8-86.4z m89.6 96c-6.4 0-12.8 0-19.2 3.2-9.6 6.4-16 9.6-12.8 22.4 0 3.2-3.2 3.2-3.2 3.2-6.4 3.2-12.8 9.6-12.8 19.2-3.2 12.8 6.4 19.2 16 19.2 6.4 0 12.8-3.2 19.2-6.4 9.6-3.2 19.2-3.2 28.8 0 3.2 3.2 9.6 3.2 12.8 6.4 9.6 3.2 16 0 19.2-6.4 3.2-6.4 3.2-12.8-3.2-19.2-3.2-6.4-9.6-9.6-16-12.8-3.2 0-3.2-3.2-3.2-6.4 3.2-9.6 0-16-9.6-19.2-3.2-3.2-9.6-3.2-16-3.2z m25.6 86.4v-16c0-3.2 0-3.2-3.2-3.2-6.4-3.2-12.8-3.2-16-6.4-3.2 0-3.2 0-3.2 3.2 0 9.6-3.2 19.2 0 32 0 6.4 6.4 12.8 12.8 9.6 6.4 0 9.6-6.4 9.6-12.8v-6.4z m-28.8-6.4v-12.8c0-3.2 0-3.2-3.2-3.2-6.4 3.2-12.8 3.2-19.2 6.4-3.2 0-3.2 3.2-3.2 3.2 0 9.6 0 16 3.2 25.6 3.2 6.4 9.6 9.6 16 3.2 3.2-3.2 6.4-6.4 6.4-12.8-3.2-3.2 0-6.4 0-9.6z" fill="#529BBA" p-id="11683"></path><path d="M531.2 262.4c0-12.8 9.6-22.4 19.2-22.4s19.2 9.6 19.2 22.4c0 12.8-9.6 22.4-19.2 22.4s-19.2-9.6-19.2-22.4z m35.2 6.4c0-3.2 0-6.4-3.2-6.4s-3.2 3.2-3.2 6.4 0 6.4 3.2 6.4c0 0 0-3.2 3.2-6.4z m-160 0c0 12.8-9.6 22.4-19.2 22.4s-19.2-9.6-19.2-22.4c0-12.8 9.6-22.4 19.2-22.4s19.2 9.6 19.2 22.4z m-9.6 9.6c3.2 0 3.2-3.2 3.2-3.2 0-3.2 0-6.4-3.2-6.4s-3.2 3.2-3.2 3.2c-3.2 3.2 0 6.4 3.2 6.4z m108.8 57.6c-3.2 0-9.6 0-12.8-3.2-12.8-3.2-12.8-12.8-6.4-22.4 9.6-6.4 19.2-9.6 28.8-6.4 6.4 0 9.6 3.2 12.8 6.4 6.4 6.4 6.4 16-3.2 19.2-3.2 3.2-9.6 6.4-19.2 6.4z" fill="#529BBA" p-id="11684"></path><path d="M566.4 268.8c0 3.2 0 6.4-3.2 6.4s-3.2-3.2-3.2-6.4 0-6.4 3.2-6.4c0 0 0 3.2 3.2 6.4z m-169.6 9.6c-3.2 0-3.2-3.2-3.2-6.4s0-6.4 3.2-3.2c3.2 0 3.2 3.2 3.2 6.4s0 3.2-3.2 3.2z" fill="#FDFEFC" p-id="11685"></path></svg>