<?xml version="1.0" standalone="no"?><!DOCTYPE svg PUBLIC "-//W3C//DTD SVG 1.1//EN" "http://www.w3.org/Graphics/SVG/1.1/DTD/svg11.dtd"><svg t="1620271743296" class="icon" viewBox="0 0 1417 1024" version="1.1" xmlns="http://www.w3.org/2000/svg" p-id="17525" xmlns:xlink="http://www.w3.org/1999/xlink" width="276.7578125" height="200"><defs><style type="text/css"></style></defs><path d="M969.177 98.54a65.22 65.22 0 0 0-16.227 1.97v0.787h0.788c3.23 6.144 8.664 10.634 12.682 16.07 3.15 6.3 5.907 12.602 9.137 18.904l0.788-0.788c5.513-3.938 8.27-10.24 8.27-19.692-2.363-2.836-2.678-5.593-4.726-8.35-2.363-3.938-7.404-5.907-10.634-8.98l-0.078 0.08z m-628.264 779.5H286.09a3004.258 3004.258 0 0 0-15.912-260.568h-0.472l-83.338 260.569h-41.669L61.991 617.472h-0.551c-6.46 86.646-10.24 173.607-11.5 260.569H0c3.23-116.185 11.343-225.123 24.182-326.735H92.16l78.848 240.088h0.473l79.557-240.01h64.748a3540.677 3540.677 0 0 1 25.206 326.735h-0.079z m237.253-241.033c-22.292 120.753-51.751 208.738-88.143 263.483-28.435 42.299-59.628 63.33-93.499 63.33a92.16 92.16 0 0 1-33.477-8.113v-29.145c6.538 0.946 14.179 1.497 22.843 1.497a55.138 55.138 0 0 0 38.204-13.154c11.657-10.634 17.486-22.528 17.486-35.683 0-9.216-4.568-27.805-13.627-55.768L368.09 637.007h53.72l42.93 139.421c9.688 31.666 13.784 53.72 12.13 66.324 23.63-62.858 40.015-131.545 49.31-205.745h51.987z m793.836-195.19c-31.586-0.788-56.083 2.363-76.642 11.027-5.908 2.363-15.36 2.363-16.148 9.925 3.23 3.151 3.702 8.271 6.46 12.603 4.726 7.877 12.918 18.511 20.48 24.104 8.27 6.459 16.54 12.76 25.206 18.274 15.36 9.452 32.768 15.045 47.812 24.576 8.665 5.514 17.33 12.603 25.994 18.51 4.333 2.915 7.09 8.272 12.682 10.162v-1.181c-2.757-3.545-3.544-8.665-6.223-12.603-3.938-3.939-7.877-7.562-11.815-11.422a190.385 190.385 0 0 0-41.039-39.936c-12.603-8.665-40.33-20.638-45.528-35.131l-0.788-0.788c8.665-0.787 18.905-3.938 27.254-6.301 13.39-3.545 25.679-2.757 39.542-6.302 6.302-1.575 12.603-3.466 18.905-5.514v-3.544c-7.09-7.09-12.367-16.7-19.692-23.316a523.815 523.815 0 0 0-65.221-48.6c-12.446-7.878-28.121-12.998-41.197-19.693-4.726-2.363-12.603-3.623-15.36-7.562-7.089-8.664-11.264-20.086-16.226-30.405a1045.11 1045.11 0 0 1-32.296-68.686c-7.089-15.44-11.421-30.878-20.086-45.056-40.802-67.19-84.913-107.914-152.812-147.693-14.572-8.27-32.06-11.815-50.57-16.226-9.846-0.473-19.692-1.182-29.538-1.576-6.46-2.757-12.76-10.24-18.275-13.863-22.528-14.178-80.66-44.898-97.122-4.254-10.713 25.6 15.754 50.885 24.89 63.882 6.775 9.059 15.36 19.378 20.087 29.539 2.757 6.853 3.545 13.942 6.302 21.031 6.301 17.33 12.209 36.785 20.48 53.012a181.17 181.17 0 0 0 14.65 24.418c3.151 4.333 8.665 6.302 9.847 13.391-5.514 8.035-5.908 19.692-9.059 29.539-14.178 44.74-8.664 100.036 11.422 132.962 6.301 9.767 21.346 31.508 41.511 23.158 17.723-7.09 13.864-29.538 18.905-49.31 1.181-4.726 0.394-7.876 2.836-11.027v0.866c5.513 11.107 11.106 21.662 16.226 32.768 12.13 19.378 33.398 39.464 51.2 52.933 9.452 7.09 16.935 19.378 28.75 23.71v-1.182h-0.866c-2.52-3.387-5.907-5.04-9.137-7.877a203.54 203.54 0 0 1-20.637-23.63 517.514 517.514 0 0 1-44.111-71.917c-6.538-12.445-11.973-25.757-17.172-37.966-2.363-4.727-2.363-11.816-6.301-14.179-5.908 8.665-14.573 16.069-18.905 26.782-7.483 16.935-8.27 37.809-11.107 59.628-1.575 0.394-0.787 0-1.575 0.788-12.603-3.072-17.014-16.148-21.661-27.176-11.816-28.042-13.785-73.098-3.545-105.393 2.757-8.27 14.572-34.422 9.846-42.3-2.52-7.56-10.24-11.814-14.572-17.958-5.514-7.877-10.319-16.306-14.179-25.207-9.452-22.055-14.178-46.473-24.497-68.608-4.726-10.24-12.997-20.952-19.692-30.326-7.562-10.634-15.754-18.117-21.74-30.72-1.97-4.332-4.727-11.5-1.576-16.226 0.788-3.151 2.363-4.411 5.514-5.278 5.199-4.253 19.771 1.26 24.891 3.624 14.651 5.907 26.94 11.5 39.148 19.692 5.514 3.938 11.5 11.5 18.59 13.39h8.27c12.604 2.836 26.86 0.788 38.676 4.333 21.032 6.774 39.936 16.542 56.872 27.175a351.705 351.705 0 0 1 123.195 135.09c4.726 9.058 6.774 17.329 11.027 26.781 8.271 19.535 18.511 39.227 26.94 58.053 8.27 18.668 16.226 37.573 28.12 53.012 5.908 8.27 29.617 12.603 40.251 16.935 7.877 3.545 20.086 6.774 27.176 11.028 13.627 8.35 26.781 17.802 39.62 26.86 6.46 4.49 26.152 14.336 27.333 22.37z" fill="#13748E" p-id="17526"></path><path d="M1306.309 878.04h-155.412V551.307h52.303v286.562h103.109zM976.187 546.344c84.913 0 127.291 54.115 127.291 162.265 0 58.762-12.682 103.188-38.282 133.12a126.818 126.818 0 0 1-15.045 14.73l60.023 29.538h0.157l-21.268 36.707-78.296-45.608a150.213 150.213 0 0 1-42.772 5.83c-41.748 0-72.861-12.131-93.578-36.313-22.685-26.782-33.87-69.002-33.87-126.425 0-58.447 12.76-102.636 38.203-132.647 23.315-27.49 55.847-41.197 97.437-41.197z m-5.356 40.173c-50.019 0-75.067 41.275-75.067 123.51 0 47.025 6.616 81.29 19.928 102.557 12.21 20.008 31.35 29.933 57.66 29.933 50.018 0 75.066-41.67 75.066-124.613 0-46.474-6.695-80.345-19.928-101.77-12.21-19.692-31.508-29.539-57.66-29.539zM817.782 787.535c0 27.727-10.24 50.57-30.484 68.293-20.322 17.723-47.497 26.545-81.84 26.545-32.06 0-62.78-10.161-92.948-30.405l14.1-28.12c25.836 12.996 49.151 19.377 70.261 19.377 19.614 0 35.053-4.333 46.238-12.997a44.505 44.505 0 0 0 17.723-36.313c0-19.535-13.548-36.076-38.282-49.94-22.843-12.603-68.687-38.833-68.687-38.833-24.89-18.117-37.336-37.573-37.336-69.553 0-26.545 9.295-47.813 27.805-64.04 18.59-16.462 42.536-24.575 72.074-24.575 30.169 0 57.817 8.034 82.708 24.26l-12.603 28.121a161.004 161.004 0 0 0-62.858-13.627c-16.778 0-29.696 4.017-38.597 12.21a40.487 40.487 0 0 0-14.73 30.956c0 19.377 13.864 35.997 39.385 50.176 23.237 12.76 70.104 39.62 70.104 39.62 25.6 18.039 38.282 37.18 38.282 69.002l-0.315-0.157z" fill="#F28D05" p-id="17527"></path></svg>