<?xml version="1.0" standalone="no"?><!DOCTYPE svg PUBLIC "-//W3C//DTD SVG 1.1//EN" "http://www.w3.org/Graphics/SVG/1.1/DTD/svg11.dtd"><svg t="1620269071078" class="icon" viewBox="0 0 1024 1024" version="1.1" xmlns="http://www.w3.org/2000/svg" p-id="12338" xmlns:xlink="http://www.w3.org/1999/xlink" width="200" height="200"><defs><style type="text/css"></style></defs><path d="M710.603536 1.271898c-2.982675 0-4.900109 1.448728-7.030591 4.047916a17.725611 17.725611 0 0 0-2.982675 18.322145c8.095832 17.469953 15.4673 35.366002 22.49789 53.262051 0.426096 0.852193 0.937412 1.704386 1.661776 2.897456-1.661776-0.085219-2.130482-0.937412-2.684407-1.832215-12.655063-13.208989-27.611047-23.73357-42.524422-34.258151-20.15436-14.359449-42.183544-25.693613-64.04229-37.155607a24.628372 24.628372 0 0 0-9.118463-2.769626l-16.362102-1.704386c-8.607147-1.065241-15.126422 3.834868-15.126422 12.442015 0 4.601841-1.960043 5.624473-5.752302 5.96535-3.366162 0.170439-7.968003 4.900109-8.351489 8.181051a29.571091 29.571091 0 0 0 9.714998 26.375367c18.91868 17.683001 37.198216 36.005146 55.520362 54.327292l0.639144 0.298268a4.260964 4.260964 0 0 1 1.19307 1.619166c-0.298267 0.127829-0.596535 0.127829-0.809583 0.127829a2.42875 2.42875 0 0 1-1.533947-0.937412c-0.085219-0.085219-0.213048-0.213048-0.213048-0.298267-2.641798-1.533947-5.411424-2.982675-7.968003-4.687061-12.782892-8.521928-25.352736-17.214295-38.135629-25.480565a40.180891 40.180891 0 0 0-19.643044-7.243639 19.302167 19.302167 0 0 0-16.702979 6.093179 11.930699 11.930699 0 0 0-3.749648 10.780239c0.681754 6.221008 4.900109 10.098485 9.501949 13.294208 21.39004 14.402059 40.479159 31.275476 58.20477 50.023718 1.533947 1.619166 3.153113 3.366162 4.900108 4.77228 5.027938 4.090526 8.095832 9.54456 11.163726 15.169032 1.406118 2.556578 0.894802 3.153113-1.832214 3.153113-18.236926 0-35.62166 5.027938-53.091613 8.692367-7.15842 1.533947-14.23162 4.005306-16.788198 11.930699-2.769627 8.948025-4.090526 13.975962 6.817542 16.70298a407.774262 407.774262 0 0 1 63.488365 21.986574 23.435302 23.435302 0 0 1 4.985328 3.280942c5.113157 4.431403 9.800217 9.331511 15.42469 12.910722 16.191663 10.524581 32.809423 20.367408 51.983762 24.84142 2.258311 0.511316 4.260964 1.661776 6.434056 2.130482 2.130482 0.639145 3.57921 1.874824 4.005306 4.005306 1.23568 7.584516 5.92274 11.88809 12.99594 14.061182 0.894802 0.255658 1.619166 0.852193 2.556579 1.19307 2.215701 0.724364 3.238333 2.34353 3.962696 4.601841 2.854846 10.226314 5.837521 20.367408 9.033244 30.465893 1.107851 3.408771 0.085219 4.303574-2.982675 5.240986-15.850786 4.601841-31.616353 9.374121-47.38192 14.23162-5.624473 1.704386-5.709692 1.832215-2.854846 6.945371l38.689554 69.666763c5.411424 9.800217 5.624473 9.800217 15.552518 4.687061 1.022631-0.511316 2.42875-2.258311 3.366162-0.596535 0.894802 1.533947 2.556578 3.792258 1.022631 5.539253-4.814889 5.496644-8.095832 11.930699-12.186357 17.896049-1.320899 1.917434-1.320899 3.153113-0.213048 4.985328 4.303574 7.0732 8.607147 14.23162 12.782892 21.39004 0.511316 0.809583 1.448728 1.832215 1.278289 2.471359l-5.240985 15.637738a108.143268 108.143268 0 0 0-13.507256-30.508503c-7.669735-12.271577-17.469953-23.094425-26.417978-34.556418-1.406118-1.704386-3.067894-3.280942-4.68706-4.900109-8.521928-8.820196-19.429996-14.146401-29.784139-20.367408a43.717491 43.717491 0 0 0-14.487278-5.411425c-15.978615-3.408771-31.829402-4.68706-47.722798 0.170439-3.238333 1.022631-4.985328 0.213048-6.902761-2.556579-3.920087-5.411424-7.0732-11.632432-12.314187-15.850786-12.782892-10.226314-26.290148-19.515215-42.013105-24.841421a125.69844 125.69844 0 0 0-36.85734-7.158419 181.815337 181.815337 0 0 0-19.728263 0.724364c-16.873418 1.278289-33.661616 3.153113-48.574991 12.484624-2.982675 1.832215-6.391446 2.854846-9.41673 4.601842-15.339471 8.26627-30.508503 16.447321-43.291395 28.931946a558.186294 558.186294 0 0 0-38.220848 40.223501c-13.720304 16.362102-24.074447 34.854686-33.363349 53.986414-0.639145 1.320899-0.937412 2.982675-2.982675 4.090526l-5.113157-31.701573c-0.298267-1.960043 0.937412-1.832215 2.258311-1.619166 3.792258 0.426096 7.456687 0.596535 11.248945 1.107851 2.854846 0.426096 4.388793-0.213048 5.113157-3.408772 0.937412-4.346183 1.960043-8.777586 2.854846-13.251598 3.493991-16.916027 8.521928-33.23552 12.910721-49.85328 0.852193-3.153113 0.298267-4.260964-2.982674-5.113157-16.234273-3.834868-32.511156-8.181051-48.788039-12.058528-3.067894-0.724364-4.516622-1.832215-3.57921-5.113157 3.707039-12.697673 5.326205-25.991881 10.311533-38.348677a7.584516 7.584516 0 0 1 2.38614-3.707038c4.175745-3.238333 7.243639-7.030591 6.817543-12.868112-0.298267-4.388793 1.746995-7.15842 5.965349-9.118463 7.754955-3.664429 15.254251-7.968003 22.58311-12.271576a35.792098 35.792098 0 0 0 13.933352-14.189011c13.720304-25.778833 25.139688-52.921174 41.757448-77.12345 1.406118-2.173092 2.556578-4.516622 4.260964-6.391446 10.737629-11.248945 20.793505-23.179645 32.852033-33.23552 3.792258-3.153113 4.814889-7.456687 4.900109-12.143747 0-5.454034-3.153113-9.246292-6.434056-12.995941-3.195723-3.707039-6.434056-6.860152-11.888089-6.263617-1.19307 0.127829-2.42875-0.426096-3.749649-0.596535 0.809583-1.661776 2.130482-2.045263 3.238333-2.769626 14.444668-9.288902 28.846727-18.620413 43.291395-28.037144 17.469953-11.248945 34.897296-22.58311 52.495077-33.832055 2.215701-1.448728 3.238333-2.556578 0.809583-4.68706-0.639145-0.553925-1.022631-1.278289-1.533947-1.874824-3.57921-4.218354-3.57921-4.218354-8.521928-1.23568L345.140647 158.586691c-4.303574 2.641798-4.303574 2.641798-6.476666-2.130482-4.77228-11.206336-7.541906-22.966596-11.121116-34.513809-0.852193-2.641798-0.127829-4.175745 1.917434-5.83752 12.314186-9.800217 23.563131-20.878724 34.939905-31.616354a25.736223 25.736223 0 0 0 7.925394-15.765567c0.937412-7.243639-3.834868-11.035897-10.396753-8.351489a72.734657 72.734657 0 0 0-9.41673 4.474012c-28.974556 15.978615-59.866545 26.929293-91.568118 36.132975-1.832215 0.511316-3.493991 1.107851-5.027938-0.852193-3.153113-3.834868-7.882784-5.96535-11.84548-8.862805a3.110504 3.110504 0 0 0-2.684407-0.639145c-4.260964 1.15046-8.692367 2.38614-11.334165 6.263618-6.774933 9.928046-15.254251 18.748242-21.603088 29.059775-7.243639 11.930699-14.18901 23.946618-22.370061 35.280782-1.533947 2.130482-2.130482 2.471359-3.57921-0.085219L155.357307 113.548301a120.883551 120.883551 0 0 0-9.50195-14.402058c-4.005306-5.027938-8.905415-7.499297-15.254251-6.774933-1.107851 0.127829-2.556578-0.213048-2.982675 1.533947-0.852193 4.68706-3.025284 9.629779-2.42875 14.146401 1.448728 11.504603 3.493991 23.094425 6.391446 34.34337 4.857499 19.557825 10.396752 38.859992 16.191664 58.11955 5.667082 18.91868 12.015919 37.496484 18.151707 56.372555 0.511316 1.619166 1.406118 3.067894-0.852193 4.388793-2.854846 1.619166-7.456687 2.471359-7.968003 5.326205-0.511316 2.982675 2.130482 6.391446 3.408771 9.587169l0.298268 0.724364c1.022631 2.471359 1.533947 6.135788 3.366161 7.0732 2.471359 1.23568 4.68706-2.130482 6.945372-3.49399 2.045263-1.23568 2.769627-0.894802 3.707039 1.235679 5.283595 12.484625 10.737629 24.841421 16.149053 37.326046a7.669735 7.669735 0 0 1 0.298268 5.83752 176.318693 176.318693 0 0 0-8.181051 30.678942c-0.511316 2.982675-1.619166 2.982675-3.877477 2.34353a4586.501732 4586.501732 0 0 0-35.493831-8.948025c-5.240986-1.363509-5.240986-1.363509-5.837521 3.962697v0.426096c-2.556578 28.335411-5.113157 56.670822-7.797564 84.963624-0.170439 2.556578 0.127829 3.621819 2.897455 3.920087 8.26627 1.022631 16.447321 2.34353 24.628373 3.57921 1.533947 0.213048 2.854846 0.298267 2.471359 2.556578-1.832215 9.587169-3.280942 19.302167-5.326205 28.846727a7.584516 7.584516 0 0 0 1.448728 6.945372c2.854846 3.707039 5.624473 7.456687 8.479318 11.248945 1.960043 2.684407 3.408771 6.135788 1.619166 8.905415a8.564538 8.564538 0 0 0-1.406118 5.027937c0.298267 17.683001 0.298267 35.366002 1.107851 53.091613 0.426096 8.564538 0.298267 17.171685 0.511316 25.778832 0.426096 22.796158 1.704386 45.507096 2.556578 68.303254 0.426096 11.163726-1.533947 22.199623-1.022631 33.363349 0.085219 2.769627 0.724364 4.260964 3.57921 5.198376 6.774933 2.130482 13.294208 4.942718 20.15436 7.073201a11.930699 11.930699 0 0 1 7.882783 6.647104 18.577803 18.577803 0 0 1 1.619167 9.331511c-0.085219 3.067894 1.022631 4.900109 3.49399 6.647104 10.524581 7.541906 20.963943 15.339471 31.531134 23.094425 27.696266 20.452628 55.392533 41.033084 83.259238 61.357883 2.556578 1.960043 3.153113 3.493991 1.619167 6.263617-1.448728 2.641798-2.34353 5.752302-3.792258 8.394099-1.23568 2.471359-1.022631 4.005306 1.320898 5.709692 3.493991 2.471359 6.860152 5.240986 10.055876 8.010613 2.769627 2.34353 2.854846 6.007959 2.045262 8.862805-0.639145 2.087872-3.707039 0.213048-5.624472 0-1.363509-0.085219-2.684407-0.426096-4.005306-0.596535-13.208989-2.130482-26.290148-5.539253-39.712186-6.647104-21.34743-1.704386-42.73747-3.57921-64.340557-2.982675-1.107851 0-2.854846-1.022631-3.153114 1.278289-0.298267 1.789605-0.724364 3.749648 1.320899 4.985328 1.022631 0.596535 2.130482 1.107851 3.280943 1.533947 12.058528 4.175745 23.307473 10.226314 34.38598 16.575151 7.15842 4.090526 14.18901 8.692367 22.071794 11.461993 1.448728 0.511316 2.897456 1.619166 4.601841 0.085219-11.84548-9.374121-23.605741-18.833461-35.493831-28.335411 1.661776-1.23568 2.982675-0.724364 4.218355-0.596535 14.18901 1.107851 28.335411 3.067894 42.140934 6.348837 30.380674 7.243639 60.5483 15.42469 90.417658 24.415324 9.800217 2.982675 20.239579 4.431403 29.059775 10.354143 2.130482 1.406118 3.408771 2.854846 3.153113 5.539253 0.511316 0.596535 1.15046 1.406118 0.426097 1.917434-0.852193 0.511316-1.533947-0.511316-2.130482-1.022632-6.987981-0.596535-13.933353-1.107851-20.793505-1.832214-19.728264-1.960043-39.371308-4.68706-59.31262-4.090526-14.913374 0.426096-29.869358-0.639145-44.740123 0.426097-21.049163 1.406118-42.140935 4.175745-63.062268 6.391446-1.065241 0.127829-2.684407-0.085219-2.684407 1.15046 0 1.533947 0.596535 3.280942 2.556578 3.707039a24.713592 24.713592 0 0 0 4.81489 0.511316c10.65241 0.426096 21.176991 0.298267 31.786792 0.468706 26.417977 0.639145 52.921174-0.511316 79.253931 1.746995 9.54456 0.852193 19.174338 0.426096 28.46324 2.130482 43.88793 8.223661 87.562812 16.788198 131.152475 26.332758 5.113157 1.107851 10.354143 1.917434 15.33947 4.388793-2.34353 2.130482-5.411424 2.769627-6.732323 5.837521-9.331511 21.560478-15.4673 44.314026-22.58311 66.598868-1.278289 3.792258 1.278289 8.181051 5.113157 9.203683a11.84548 11.84548 0 0 0 14.998594-9.416731c0.852193-4.601841 1.661776-9.203682 2.258311-13.933353 0.213048-1.533947 0.724364-2.34353 2.258311-2.854845 5.624473-2.258311 11.121116-4.601841 16.745589-6.817543a69.453714 69.453714 0 0 0 22.5405-13.848133c5.709692-5.411424 10.524581-11.675042 10.65241-20.026531 0-2.556578 0.596535-4.218354 2.641798-5.752302 9.374121-7.243639 17.81083-15.552519 25.99188-24.031837a256.936134 256.936134 0 0 1 25.565785-22.710939c1.022631-0.852193 1.832215-2.045263 3.451381-1.448728l23.861399 9.416731c-15.978615 9.714998-31.105038 19.046509-46.146241 28.122363-0.724364 0.426096-1.533947 0.639145-2.258311 0.852193a34.641638 34.641638 0 0 0-14.402059 8.564538c-15.978615 15.850786-24.159666 34.684248-23.222254 57.523015 0.596535 15.339471 9.374121 22.58311 24.330105 19.131728 26.204929-6.135788 48.57499-31.232867 52.495077-58.758694 1.022631-7.669735 2.215701-15.211642-3.280942-21.858746a95.914301 95.914301 0 0 0-7.584516-8.30888c0.852193-0.511316 1.23568-0.809583 1.661776-1.107851 33.107691-19.728264 69.240666-33.150301 105.458861-45.592315 44.314026-15.296861 89.480246-27.440609 134.816903-39.115651l-3.195723-0.724363c-2.982675 0.298267-5.794911 0.639145-8.777586 0.852192a217.181339 217.181339 0 0 0-37.155607 5.709692l-0.681754 0.298268a9.629779 9.629779 0 0 1-4.005306 0.639144c-0.596535 0-1.23568 0-2.045263 0.08522 2.769627-2.641798 10.737629-11.248945 12.910721-10.652411l0.085219-0.213048h0.213049c0-0.298267 0.809583-0.894802 0.809583-0.894802 0.724364-1.23568 1.704386-2.045263 3.153113-2.130482a29.571091 29.571091 0 0 1 8.394099-8.010613c2.130482-1.320899 4.388793-2.641798 6.860153-3.664429h-0.08522c6.817543 0 13.592475-8.26627 20.708286-11.163726-0.04261-0.255658-0.426096-0.426096-0.553926-0.724364-10.226314 1.448728-20.282189 3.067894-30.082406 6.774933-20.963943 7.754955-42.65225 13.805524-63.104878 22.796158-31.616353 13.805524-63.147488 27.611047-93.528161 44.100978a34.854686 34.854686 0 0 1-3.280943 1.533947l-2.34353-21.475259c-0.213048-1.448728 0.511316-2.045263 1.746995-2.684407 26.886683-14.23162 53.901196-28.335411 82.023559-39.967843 23.137035-9.629779 46.018412-20.069141 69.283276-29.485871 0.085219-0.213048 0.213048-0.426096 0.426096-0.426097h0.170439c0.127829 0 0.127829 0.127829 0.213048 0.127829 0.298267 0.511316 0.085219 0.852193-0.213048 1.107851-0.085219 0.127829-0.213048 0.127829-0.426097 0.213048h-0.085219a143.083174 143.083174 0 0 0-15.850786 28.122363c1.619166 0.426096 2.258311-0.085219 2.854845-0.724364 4.814889-5.113157 9.629779-10.098485 14.31684-15.211642 9.118463-10.013266 18.748242-19.557825 29.997187-27.312779 0.724364-0.511316 1.917434-0.937412 1.406118-2.045263-0.596535-1.278289-1.917434-0.639145-2.854846-0.426097-10.524581 2.130482-21.049163 4.090526-31.531134 6.561885-3.451381 0.809583-3.238333-0.426096-3.366162-2.854846-0.085219-8.394099 1.15046-16.61776 1.448728-24.969249a26.844074 26.844074 0 0 1 2.471359-10.524582c4.175745-9.629779 8.394099-19.174338 12.655064-28.761507 2.130482-4.814889 3.408771-9.928046 4.218354-15.041203 1.320899-8.181051 2.34353-16.447321 3.153113-24.713592 1.320899-12.740283 5.837521-24.713592 7.968003-37.283436 2.769627-15.936006 5.027938-31.99984 10.950678-47.254091 5.326205-13.507256 10.439362-27.014512 15.850786-40.39394 7.499297-18.236926 17.001247-35.493831 21.517869-54.966436 1.533947-6.732323 3.238333-12.868112 0.170438-19.515216-1.704386-3.57921-2.215701-7.669735-3.45138-11.547212a16.702979 16.702979 0 0 1-0.511316-8.692367c2.045263-10.439362 2.982675-20.793505-2.684408-30.508503-1.533947-2.641798 0.340877-4.260964 1.874825-5.92274 3.749648-3.877477 3.962697-5.624473 0.681754-9.800217-3.749648-4.68706-7.456687-9.54456-11.504603-13.933353-3.408771-3.57921-6.561885-7.456687-9.970656-11.163726-2.34353-1.406118-2.130482-2.34353 0.511316-3.238332 5.96535-2.045263 11.760261-4.601841 17.81083-6.476666 3.408771-1.022631 4.260964-2.982675 4.516621-6.007959 1.917434-25.778833 3.834868-51.685494 5.92274-77.464327 0.298267-3.57921-0.298267-4.260964-4.005306-3.153114-19.344777 6.135788-38.646944 11.930699-58.07694 17.981269-5.96535 1.874824-6.050569 1.874824-8.692367-3.962697-9.842827-22.114404-17.512562-45.03839-25.565784-67.749329a16.702979 16.702979 0 0 1 0.298267-13.464646c2.854846-8.010612 1.022631-16.063835 0.809583-24.159666a4.431403 4.431403 0 0 1-0.213048-1.23568 390.304309 390.304309 0 0 0-10.822849-65.959724 256.510037 256.510037 0 0 0-21.30482-54.114244c-9.714998-18.407365-20.15436-36.644291-31.403305-54.327292-4.814889-7.584516-9.928046-14.444668-18.492584-18.194316A29.911968 29.911968 0 0 0 710.560926 1.271898z m-112.617281 11.078506a15.509909 15.509909 0 0 1 8.521928 2.173092 811.372779 811.372779 0 0 1 62.593562 34.300761c10.524581 6.732323 20.537847 14.402059 30.465894 22.157013 4.68706 3.707039 8.181051 9.246292 12.101138 14.061182 1.619166 2.002653 0.511316 3.834868-1.022632 5.283595-1.022631 1.022631-2.471359 1.661776-3.707039 2.34353-1.320899 0.937412-3.067894 1.746995-2.556578 3.707039 0.426096 1.704386 2.34353 2.130482 3.877477 2.471359a11.504603 11.504603 0 0 0 6.774933-0.639144c7.15842-2.982675 13.208989 2.045263 17.81083 7.0732 1.19307 1.278289 1.704386 3.962697 3.962697 3.153113 2.34353-0.894802 2.684407-3.451381 2.471359-5.83752-0.511316-6.391446-2.130482-12.655063-3.57921-18.918681-3.834868-16.063835-11.504603-30.593722-17.81083-45.720145-2.258311-5.411424-4.68706-10.822849-6.945371-16.276882-1.23568-2.982675 0.426096-5.624473 2.045262-7.754955 1.320899-1.704386 3.451381-0.213048 5.198377 0.596535 6.476665 2.897456 10.141095 8.095832 13.294208 14.146401 3.408771 6.391446 7.584516 12.356796 11.163725 18.577803 6.135788 10.865458 13.720304 21.091772 18.620413 32.468546 7.15842 16.532541 16.276883 32.298108 20.580457 50.108938 3.664429 15.765567 8.862805 31.190257 10.737629 47.46714 0.681754 6.135788-0.426096 12.058528 0.298268 17.981268 1.406118 11.88809-0.340877 23.137035-5.240986 34.002494-1.278289 2.982675-0.894802 5.794911 0.511316 8.862805 10.737629 22.710939 19.643044 46.146241 28.548459 69.666762 1.15046 3.067894 0.639145 4.303574-2.556578 5.240986-20.537847 6.007959-41.118303 12.271577-61.656151 18.492584-2.982675 0.937412-3.920087 0.127829-4.814889-2.556578-5.240986-13.890743-10.226314-27.525828-15.041203-41.203523-1.022631-2.897456-2.258311-4.431403-5.454034-3.707038-3.749648 0.937412-5.794911-0.724364-7.456687-4.090526-2.641798-5.411424-4.814889-11.930699-9.203683-15.339471-4.388793-3.408771-11.334164-3.493991-17.171685-4.900108-4.388793-1.15046-8.820196-2.471359-13.294208-3.195723a60.846567 60.846567 0 0 1-26.0771-11.632432c-12.910721-9.54456-26.204929-18.322146-39.797404-26.716245-4.431403-0.298267-8.607147-1.533947-12.910722-2.556579-11.84548-2.42875-23.605741-4.985328-35.49383-7.243638-2.854846-0.511316-3.408771-2.684407-3.57921-4.601842-0.298267-2.38614 0.298267-4.68706 2.769626-6.135788 3.792258-2.258311 8.095832-2.684407 12.356796-3.408771a412.887419 412.887419 0 0 1 57.309967-5.539254c4.68706-0.085219 8.905415 1.704386 13.294208 2.812237a7.669735 7.669735 0 0 0 7.0732-1.278289c9.203682-6.093179 18.492584-11.930699 27.696267-17.981269 1.448728-0.894802 4.090526-1.533947 2.982675-3.962696a3.5366 3.5366 0 0 0-0.639145-0.937413c-0.511316-0.426096-1.107851-0.511316-1.832214-0.511315l-2.130482 0.085219h-0.298268a49.384574 49.384574 0 0 0-28.46324 8.521928c-3.366162 2.130482-11.035897 0.809583-13.208989-2.38614-14.487278-21.986575-35.067734-37.837361-54.625559-54.923827-8.692367-7.541906-17.171685-15.42469-26.375368-22.412671-2.34353-1.704386-3.408771-6.135788-1.832214-8.351489 2.045263-3.067894 4.68706-1.746995 7.158419-0.639145 7.882784 3.493991 15.42469 7.456687 22.497891 12.484625 24.031837 17.171685 49.85328 31.701573 75.504283 46.23146a21.730917 21.730917 0 0 0 2.130482 1.15046c3.920087 1.278289 5.96535-0.426096 5.326205-4.516621a11.376774 11.376774 0 0 0-2.641797-5.709692c-20.793505-24.457934-42.65225-47.893236-64.170119-71.712026-4.474012-4.942718-9.800217-9.203682-14.828155-13.635085a36.388633 36.388633 0 0 1-9.374121-11.84548 6.817543 6.817543 0 0 1 0.980021-8.095832c1.746995-1.917434 3.280942-2.34353 5.837521-1.022631 7.243639 3.493991 14.146401 7.584516 20.580457 12.484625 11.334164 8.607147 22.796158 17.171685 34.258151 25.778832l34.38598 25.693614c0.894802 0.724364 1.832215 1.406118 2.641798 2.130482 2.130482 1.960043 4.005306 4.005306 6.050569 6.050569l1.235679 1.235679c0.809583 0.809583 1.533947 1.917434 2.556579 2.556579 2.34353 1.406118 4.77228 2.641798 7.243639 0.170438 0.852193-0.809583 1.23568-1.533947 1.320898-2.34353 0-0.298267 0.127829-0.596535 0-0.894802 0-0.127829 0-0.340877-0.085219-0.426097a7.286249 7.286249 0 0 0-1.832214-3.067894l-7.669736-7.968003a193.31994 193.31994 0 0 0-13.294208-12.697673c-14.870765-12.356796-30.082406-24.330105-45.421877-36.005146-7.797564-5.96535-16.916027-9.928046-25.395346-14.828155-3.067894-1.746995-5.113157-4.303574-7.371467-6.774933a6.135788 6.135788 0 0 1-1.022632-6.391446c0.937412-2.300921 3.195723-2.173092 5.113157-2.38614zM352.299066 71.535195a1.917434 1.917434 0 0 1 1.23568 0.213049c2.045263 1.15046 1.278289 3.280942 1.278289 5.752301 0.553925 2.556578-1.107851 4.68706-3.408771 6.817543-14.742936 13.720304-30.125016 26.716245-45.847974 39.286088-6.263617 5.027938-13.933353 7.371468-20.878723 11.163726-1.448728 0.724364-2.258311 0-3.067895-1.022631-5.113157-6.561885-10.141095-13.208989-15.254251-19.728264-1.917434-2.34353 0.724364-2.258311 1.960043-2.769626 10.822849-3.877477 21.475259-8.30888 32.212889-12.569844 15.552519-6.135788 29.65631-14.913374 44.314026-22.710939 1.533947-0.852193 2.982675-1.832215 4.474013-2.684407 1.022631-0.426096 1.874824-1.576557 2.982674-1.746996z m-111.594649 35.366002a9.50195 9.50195 0 0 1 5.709692 2.727017c3.067894 2.854846 5.539253 6.135788 7.669735 9.714998 7.371468 11.930699 17.597782 21.560478 27.525828 31.403306 6.945371 6.945371 14.018572 13.677695 21.39004 20.026531 2.42875 2.130482 2.854846 5.411424 4.175745 8.181051 0.511316 1.022631 0.085219 1.832215-0.852193 2.34353-0.468706 0.340877-0.980022 0.553925-1.278289 0.852193-6.050569 5.113157-11.760261 4.388793-18.833461 0.809583a135.583877 135.583877 0 0 1-36.81473-27.525828c-0.426096-0.426096-0.852193-0.724364-1.278289-1.022631-4.857499-3.664429-5.113157-3.493991-7.243639 2.130482-2.215701 5.752302-3.664429 11.675042-6.221008 17.214295-0.937412 1.917434 0.511316 4.005306 1.960044 5.411424 1.619166 1.661776 2.727017 4.218354 5.709692 3.792258 1.320899-0.213048 2.045263-0.937412 2.34353-2.34353 0.724364-3.408771 1.661776-6.774933 2.556578-10.950678 11.163726 9.374121 23.563131 16.66037 35.792099 24.841421l-11.845481 6.774933c-30.380674 17.043856-60.846567 34.130322-91.142021 51.344617-2.471359 1.320899-3.493991 1.619166-4.516622-1.448728-11.632432-36.090366-23.904008-72.010293-33.661616-108.739803-2.215701-8.521928-3.153113-17.384733-4.77228-26.077101-0.511316-2.556578 1.19307-3.877477 2.854846-4.814889 2.258311-1.107851 2.34353 1.533947 3.153113 2.556579 16.063835 22.199623 27.014512 47.296701 40.095672 71.11549 3.920087 7.15842 8.30888 14.103791 12.484625 21.176991 0.852193 1.278289 1.448728 2.42875 3.493991 1.704386 2.258311-0.809583 1.832215-2.215701 1.448727-3.834868-1.661776-7.414077-5.454034-14.061181-8.22366-21.006553a7.669735 7.669735 0 0 1 0.127829-6.817542c5.837521-12.101138 14.018572-22.625719 20.452627-34.215542 5.96535-10.524581 13.507256-19.941312 19.216948-30.551112a8.734976 8.734976 0 0 1 8.521928-4.72967z m75.589503 20.963943c0.596535 0.127829 1.022631 0.681754 1.533947 1.789605 5.113157 11.504603 8.564538 23.648351 12.868112 35.366002 0.426096 1.15046 0.511316 2.087872-0.724364 2.812237l-10.908068 6.732323c-0.340877 0.213048-0.724364 0.298267-1.960044 0.852193-0.298267-0.553925-0.724364-1.448728-1.320899-2.173092l-23.009206-26.417977c-1.022631-1.19307-2.045263-2.34353 0-3.451381 7.541906-4.303574 13.294208-11.248945 21.262211-14.913375 1.022631-0.468706 1.704386-0.724364 2.258311-0.596535z m82.193997 20.708286a8.692367 8.692367 0 0 1 5.96535 1.960043 8.948025 8.948025 0 0 1 3.408771 9.288902 23.69096 23.69096 0 0 1-6.860152 12.356796 235.546094 235.546094 0 0 0-37.581703 46.572337c-9.714998 15.339471-19.302167 30.593722-26.588416 47.296701a32.724204 32.724204 0 0 1-6.221008 8.777586c-10.226314 11.632432-22.412671 20.665676-36.431243 27.184951a7.243639 7.243639 0 0 0-4.601841 6.774933c-0.213048 2.556578-1.022631 5.027938-1.235679 7.584516a20.452628 20.452628 0 0 1-8.095832 16.234273c-1.704386 1.320899-1.917434 3.493991-2.556579 5.326205l-11.632431 38.987822c0 0.298267 0 0.596535-0.08522 0.809583 0 0.596535 0.085219 1.320899-0.724364 1.619166-1.746995 0.426096-3.280942-0.085219-4.814889-0.894802a1763.953908 1763.953908 0 0 1-56.670822-14.23162c-2.34353-0.511316-4.601841-1.23568-7.073201-1.533947-3.749648-0.511316-4.090526-2.258311-2.34353-5.113157 2.471359-11.973309 5.326205-23.861399 12.697673-33.959884 1.619166-2.258311 1.533947-4.090526 0.085219-6.561885-8.095832-13.507256-14.23162-28.037144-20.963943-42.140934-1.107851-2.34353-0.724364-3.408771 1.448728-4.687061A24469.438402 24469.438402 0 0 0 297.673507 201.750258c1.917434-1.278289 3.792258-0.511316 5.624473-0.937413 6.434056-1.448728 12.697673-3.408771 18.322145-6.945371 0.426096-0.298267 1.107851-0.511316 1.278289-0.937412 4.133135-9.075853 13.208989-12.186357 20.878724-15.765567 17.512562-7.968003 35.195563-15.339471 50.662863-26.971903a7.669735 7.669735 0 0 1 4.047916-1.704385z m487.582119 160.723565v0.213048l0.08522-0.04261c-0.894802 10.908068-1.832215 21.219601-2.641798 31.531135l-1.832215 22.796157c-0.213048 2.769627-1.022631 4.516622-4.005306 5.539254a23916.365264 23916.365264 0 0 0-143.594489 49.853279l-1.661776 0.383487c-1.533947 0.213048-2.34353-0.511316-3.408772-2.34353-9.288902-16.788198-18.705632-33.448568-28.207582-50.151547-1.23568-2.130482-1.619166-3.280942 1.448728-4.090526l181.261412-53.091612c0.596535-0.213048 1.320899-0.298267 2.556578-0.596535z m-17.469952 16.447321c-6.561885 0.127829-12.484625 6.263617-12.186358 12.484625 0.298267 5.837521 5.283595 10.950678 10.822849 10.737629 5.837521-0.085219 11.504603-6.519275 11.376774-12.868111-0.213048-7.0732-3.493991-10.439362-10.055875-10.354143z m-717.120255 37.070388c0.426096 0 1.022631 0.085219 1.661776 0.298267L235.59126 384.758665c27.483218 7.286249 55.009046 14.487278 82.534875 21.730916 2.641798 0.724364 3.493991 1.533947 2.556578 4.260965l-11.84548 38.902602c-0.426096 1.533947-0.724364 3.153113-2.471359 3.153113a2.556578 2.556578 0 0 1-0.852193-0.085219l-44.143588-6.050569c-9.629779-1.278289-19.174338-2.641798-28.761507-3.962697a10865.586224 10865.586224 0 0 0-87.562812-12.186357c-1.832215-0.511316-2.471359-1.619166-2.130482-4.175745 2.215701-20.282189 4.388793-40.521768 6.519275-60.889177 0.127829-0.511316 0.085219-0.894802 0.213048-1.320898a1.491337 1.491337 0 0 0 0.213048-0.639145c0.298267-0.596535 0.894802-0.809583 1.619166-0.809583z m346.672038 4.388793l4.814889 0.085219c8.394099 0.426096 16.57515 3.664429 24.244886 7.0732 3.408771 1.533947 6.774933 2.982675 10.141094 4.601842l2.42875 1.235679c2.471359 1.19307 5.027938 2.42875 7.371468 3.834868l4.814889 2.769626c1.533947 1.065241 3.195723 1.960043 4.601841 3.110504 3.067894 2.130482 6.050569 4.474012 8.820196 7.030591 9.288902 8.607147 15.850786 18.748242 19.728264 30.678941 2.769627 8.607147 4.814889 17.427343 5.539253 26.290149 0.681754 8.607147-1.874824 17.001247-4.090526 25.267517-0.340877 1.278289-0.852193 1.533947-1.278289 1.448727-0.596535-0.213048-0.894802-0.937412-1.406118-1.533947l-9.203682-10.65241a89.693294 89.693294 0 0 0-44.399246-29.144994 177.213496 177.213496 0 0 0-42.353983-6.561885 161.874025 161.874025 0 0 0-34.258151 3.920087c-8.990634 1.704386-18.023878 3.153113-26.886684 4.81489-5.837521 1.022631-11.163726 3.664429-16.489931 6.007959-2.556578 1.15046-5.113157 2.258311-7.669735 3.238333l-0.852193 0.170438c-16.021225 5.624473-29.6137 15.339471-43.632272 24.287495-3.834868 2.556578-7.030591 5.96535-10.354143 9.288902l-0.426096 0.340877-2.727017 2.769627c-6.476665 6.263617-12.782892 12.612454-19.770873 18.322145-3.153113 4.388793-7.456687 7.456687-11.419384 11.334165 1.022631-7.243639 2.982675-13.975962 6.221008-20.111751a196.004348 196.004348 0 0 1 11.163725-18.535193c2.045263-2.982675 4.090526-5.96535 6.221008-8.777586a305.511124 305.511124 0 0 1 13.422037-16.873418c3.451381-4.133135 6.945371-8.223661 10.524581-12.314186 3.57921-4.090526 7.15842-8.095832 10.65241-12.143748a39.073041 39.073041 0 0 1 4.900109-4.218354l1.107851-1.27829c3.323552-2.854846 6.263617-5.837521 10.141094-8.948024l0.511316-0.426097 2.854846-2.641797c10.226314-9.714998 22.114404-17.299514 33.959883-24.841421 1.19307-0.809583 2.42875-1.491337 3.66443-2.173092l4.72967-2.045262c0.426096-0.170439 0.852193-0.426096 1.235679-0.511316a118.454801 118.454801 0 0 1 7.371468-2.769627l4.985328-1.533947c5.96535-1.704386 11.88809-3.153113 17.725611-4.985328a104.39362 104.39362 0 0 1 33.320739-4.900108z m-322.554981 19.131728c-3.025284 0.170439-6.519275-0.127829-9.161073 2.42875a19.685654 19.685654 0 0 0 0.511316 28.335411 12.186357 12.186357 0 0 0 16.149054 0c6.221008-5.411424 7.797564-13.379427 4.090525-22.796158-2.258311-5.837521-5.326205-7.968003-11.547212-7.968003z m675.192368 2.641798c3.707039-0.04261 6.945371 2.258311 9.800217 6.221008 0.596535 0.426096 1.23568 0.852193 1.832215 1.363508 0.937412 0.809583 1.278289 1.704386 2.258311 2.727017 4.218354 4.814889 8.820196 9.54456 13.208988 14.23162a2.727017 2.727017 0 0 1 0.596535 1.022632 0.980022 0.980022 0 0 1-0.085219 0.937412 1.704386 1.704386 0 0 1-0.639145 0.596535l-0.426096 0.639144-0.085219 0.08522c-0.085219 0.085219-0.085219 0.213048-0.170439 0.426096 0 0.085219-0.127829 0.170439-0.127829 0.170438h0.127829v0.340878c-6.178398 6.221008-4.516622 12.058528 0.426096 17.683001 0.255658 0.511316 0.596535 1.022631 0.596535 1.533947 4.090526 5.411424 0.681754 10.822849 0 16.276882-0.127829 0.511316-0.213048 0.681754-0.639144 0.894803l-0.298268 0.127829a4.942718 4.942718 0 0 1-1.235679-0.213048l-0.426097-0.127829a416.38141 416.38141 0 0 1-10.737629-3.280943c-0.298267 0-0.511316-0.170439-0.809583-0.298267-0.298267 0-0.511316-0.298267-0.809583-0.298268a12.101138 12.101138 0 0 1-5.027938-0.809583 10.737629 10.737629 0 0 0-12.442015 2.130482 2.300921 2.300921 0 0 1-0.213048 0.852193c1.704386 2.556578 4.601841 3.153113 7.158419 3.962697 10.439362 3.408771 19.302167 9.800217 28.974556 14.828155 2.215701 1.278289 2.641798 3.920087 2.42875 6.476665-0.127829 1.406118-0.511316 2.854846-0.852193 4.388793l-3.067894 13.208989a5.411424 5.411424 0 0 1-0.809584 3.238332c0.127829 7.15842-4.900109 12.484625-7.243639 18.620413-0.298267 0.511316-0.511316 0.724364-0.852192 1.746996a137.330872 137.330872 0 0 1-5.496644 12.697673c0 0.298267-0.426096 0.724364-0.511316 1.022631v-0.213048c0 0.085219-0.085219 0.085219-0.085219 0.213048l-0.213048 0.426096c-0.127829 0.085219-0.127829 0.170439-0.213048 0.298268-0.511316 1.917434-0.852193 3.962697-2.47136 5.624472a81.512243 81.512243 0 0 1-7.968002 18.407365c-0.298267 0.511316-0.511316 0.511316-0.724364 1.533947-2.641798 6.135788-5.411424 13.507256-8.095832 20.23958-0.596535 2.471359-1.107851 4.900109-1.704386 7.243639l-0.340877 0.639144c0 0.085219-0.085219 0.085219-0.085219 0.213048 0 0.213048-0.213048 0.426096-0.298268 0.596535a19.174338 19.174338 0 0 1-1.533947 8.181051c-0.511316 1.661776-0.937412 3.493991-1.448727 5.113157a3.153113 3.153113 0 0 1-0.213049 0.852193l-8.564537 38.859992c-2.34353 10.65241-3.280942 21.475259-5.027938 32.12767-1.619166 10.013266-2.045263 20.324799-4.516622 30.167625-1.704386 7.15842-5.794911 13.805524-9.075853 20.452628-3.067894 6.221008-5.027938 12.868112-8.820196 18.91868l-0.298268 0.639145a7.201029 7.201029 0 0 0-0.511315 1.278289c-0.085219 0.255658-0.085219 0.553925-0.213048 0.766974l-0.298268 1.406118a7.754955 7.754955 0 0 0-0.085219 1.533947c0 0.511316 0 1.022631-0.127829 1.533947v1.533947a30.252845 30.252845 0 0 1-0.085219 3.067894c-0.852193 10.950678-2.258311 21.901355-1.746996 32.937252 0.085219 2.045263-0.511316 3.195723-2.471359 3.877478l-2.428749 0.937412a68.090206 68.090206 0 0 0-4.81489 2.045263l-2.556578 1.022631c-1.320899 0.511316-2.130482 0.937412-4.218355 1.448728v-0.213048s-0.298267 0.213048-0.468706 0.213048l-5.667082 2.34353-3.962697 1.619166a27.057122 27.057122 0 0 1-8.990634 3.920087l-1.533947 0.894803a1072.995974 1072.995974 0 0 0-20.196969 8.990634c-3.451381 1.022631-7.030591 3.067894-10.524582 4.68706-3.792258 1.704386-7.456687 3.195723-11.248945 4.8575-5.92274 2.641798-11.84548 5.113157-17.81083 7.754954-0.170439 0.085219-0.511316 0-0.681754 0-5.454034 2.045263-11.078507 5.027938-16.191664 7.371468-2.045263 1.107851-4.985328 2.258311-7.541906 3.280942-4.68706 1.832215-5.752302 1.619166-6.774933-3.195723-3.067894-2.215701-3.366162-6.007959-4.474012-9.203682-1.15046-3.067894-2.045263-6.391446-3.067894-9.50195-0.213048-1.022631-0.724364-0.852193-0.724364-1.448728-1.022631-1.406118-1.022631-2.727017-1.533947-4.175745l-0.127829-0.724363c-0.298267-0.213048-0.298267-0.511316-0.426097-0.809584l-0.255657-0.724364h0.170438c-1.406118-4.260964-2.982675-8.479319-3.962696-12.782892-1.022631-2.854846-2.854846-5.624473-3.408772-8.607147a7.243639 7.243639 0 0 1 0-2.982675l0.340877-1.406118 0.170439-0.724364c0.852193-2.002653 2.173092-3.962697 3.195723-5.92274 0.724364-1.619166 1.320899-3.280942 2.045263-4.900109 0.724364-1.619166 1.320899-2.854846 2.045263-4.900109 1.619166-3.067894 2.641798-6.647104 4.68706-10.226313 0-0.852193 0.639145-1.661776 0.852193-2.47136 1.832215-6.221008 3.834868-12.569844 6.348836-18.620413 0-0.213048-0.213048-0.511316-0.127829-0.724363 0.724364-3.664429 4.175745-4.985328 6.221008-7.15842v0.127829c1.022631-0.340877 1.576557-0.937412 2.087872-0.937412 0.596535-1.022631 1.19307-1.448728 1.832215-2.045263a64.681435 64.681435 0 0 0 4.601841-6.348836c1.917434-2.854846 3.664429-5.837521 5.837521-8.692367 0.681754-0.894802 1.278289-2.34353 2.428749-2.34353 0.213048 0 0.298267 0 0.511316 0.085219 1.661776 0.426096 1.15046 2.34353 0.937412 3.57921a37.496484 37.496484 0 0 0 0 13.933352c0.511316 3.57921 1.107851 7.15842 1.406118 10.73763l-0.085219 1.619166a24.628372 24.628372 0 0 1 1.533947 8.095832c0.852193 3.493991 1.533947 6.817543 2.556579 10.311533 3.067894 6.391446 5.326205 12.782892 7.371467 19.344777l0.213049-0.08522c3.451381 5.113157 6.945371 11.078507 10.439362 16.66037 1.022631 1.320899 2.130482 2.769627 3.153113 3.792258h0.213048v0.852193c1.022631 0 1.533947 2.215701 3.067894 0.170438-0.298267-1.022631-0.511316-1.022631-0.852192-1.022631a19.089119 19.089119 0 0 1-1.27829-3.408771c-0.213048-0.681754-0.553925-1.491337-0.639144-2.130482a16.489931 16.489931 0 0 1-0.511316-2.130482c-0.085219-0.298267-0.085219-0.724364-0.213048-1.022632a12.015919 12.015919 0 0 0-0.426097-2.045262l-0.468706-3.195723-0.553925-3.153114c-0.298267-0.298267-0.298267-0.724364-0.298267-1.107851-0.085219-0.426096-0.170439-0.852193-0.426097-1.278289-0.085219-1.19307-0.298267-2.42875-0.468706-3.664429l-0.937412-7.328858c-0.085219-1.278289-0.511316-2.471359-0.596535-3.707039a154.843435 154.843435 0 0 1 1.533947-40.095672h0.596535c1.23568-6.135788 2.471359-13.208989 3.664429-19.856092 0.340877 0 0.639145 0.127829 1.022632 0.127829-0.426096 11.121116 0.724364 22.157013 3.195723 33.022471 0.085219 0.213048 0.085219 0.511316 0.085219 0.724364 1.533947 4.175745 3.195723 8.394099 4.516622 12.697673 0.298267 0.894802 0.596535 1.832215 0.937412 2.641798a14.402059 14.402059 0 0 0 2.34353 4.005306c0.298267 0.511316 0.894802 1.022631 0.894803 1.533947 1.022631 0.809583 1.533947 1.704386 2.38614 2.556578 0.596535 0.681754 1.107851 1.533947 1.704385 2.258311 2.130482 2.045263 4.431403 3.962697 7.073201 6.647104a156.249553 156.249553 0 0 1-0.724364-5.965349c-0.170439-1.832215-0.511316-3.664429-0.681755-5.709692 0 0-0.553925-0.298267-0.553925-0.511316a34.939905 34.939905 0 0 0-0.426096-4.601841l-1.704386-14.061182c0-0.383487 0-0.681754 0.085219-1.065241 0-0.426096 0.127829-1.15046 0.127829-1.15046a115.259078 115.259078 0 0 1-0.852193-17.683001l-0.085219-0.724364a47.808017 47.808017 0 0 1-0.085219-15.765567c0.213048-1.406118 0.085219-2.982675 0.213048-4.388793 0-0.298267-0.127829-0.511316-0.127829-0.852193 0-6.732323 0.298267-13.592475 2.34353-20.11175l0.127829-0.724364c0.511316-3.067894 1.022631-6.732323 1.533947-10.141094 0.511316-3.366162 1.022631-6.817543 1.406119-10.226314 0.213048-1.406118 0.639145-2.130482 1.448727-2.130482 0.426096 0 1.022631 0.213048 1.704386 0.724364l2.173092 1.278289 3.195723 2.087872c1.022631 0.724364 2.045263 1.406118 2.982675 2.34353 0.085219 0.085219 0.170439 0.213048 0.383486 0.298268a4.942718 4.942718 0 0 0 0.724364 0.511316h0.213048v-0.08522c7.15842 3.57921 11.121116 9.629779 15.936006 15.254252a13.208989 13.208989 0 0 1 4.687061 6.434056c3.195723 4.175745 5.539253 8.692367 7.201029 13.720304 0.085219 0.426096 0.298267 0.894802 0.426096 1.278289 0.085219 0.426096 0.298267 0.255658 0.383487 1.278289 0.852193 1.022631 1.320899 2.34353 1.832215 3.57921l1.448727 3.57921 0.809584 1.704386c0.213048 0.426096 0.426096 0.724364 0.724363 1.022631a2.982675 2.982675 0 0 0 1.704386 1.022631c1.15046-3.749648-1.491337-7.328858-0.468706-10.908068h0.298267c0-1.022631-0.298267-1.065241-0.298267-1.576556-1.022631-6.647104-1.874824-13.208989-4.644451-19.302168-0.085219-0.511316-0.085219-1.661776-0.085219-1.661776-2.471359-6.135788-3.664429-12.356796-7.243639-17.76822a4.388793 4.388793 0 0 1-1.576557-2.684407c-1.107851-1.022631-1.704386-2.258311-2.34353-3.451381a176.190865 176.190865 0 0 1-1.619166-2.684407v0.724363c0-0.085219-0.213048-0.213048-0.213049-0.298267v-0.127829a120.500064 120.500064 0 0 0-9.374121-11.84548l-0.426096-0.426097c-0.426096-0.426096-0.852193-0.426096-1.278289-1.406118-2.42875-1.022631-4.77228-4.090526-7.243639-6.263617-0.298267-0.298267-0.596535-0.426096-0.809583-0.724364-0.213048-0.170439 0-0.426096-1.022632-0.681754-5.113157-3.493991-8.905415-7.797564-13.379427-10.865458-0.852193-1.022631-1.874824-0.426096-2.258311-2.045263 13.208989-0.809583 25.991881 0.724364 39.286089 1.533947v-0.511316h0.085219c6.561885 1.022631 12.697673 2.258311 18.620413 4.81489 0.213048 0 0.426096 0.298267 0.724364 0.298267v0.213048c4.090526 0.937412 7.968003 2.769627 11.84548 4.601841 0.852193 0.426096 1.874824 1.704386 2.769627 0.511316 0.724364-1.022631-0.426096-1.960043-1.022631-2.769626-1.533947-2.130482-2.982675-4.260964-4.601842-6.434056-0.298267-0.511316-0.809583-1.022631-0.809583-1.533947-3.067894-2.982675-5.411424-6.348836-8.095832-9.331512a40.606988 40.606988 0 0 1-2.556578-2.727017 49.512403 49.512403 0 0 1-8.905415-7.243639c-0.511316-0.340877-1.022631-0.937412-1.533947-0.937412-1.278289 0-2.727017-1.448728-4.090526-2.38614-1.278289-0.894802-2.727017-1.704386-4.090525-2.641797-0.511316-0.298267-1.022631-0.511316-1.533947-0.852193-6.221008-2.34353-12.484625-4.474012-18.748242-6.817543-0.170439 0-0.553925-0.127829-0.553925-0.213048 0 0-0.553925 0-0.724364-0.085219a4.68706 4.68706 0 0 1-3.067894-1.278289 3.366162 3.366162 0 0 1-1.150461-1.491338l-0.213048-0.511315c-0.298267-0.852193-0.426096-1.746995-0.298267-2.684408a41.246132 41.246132 0 0 0-0.511316-9.374121c-0.085219-0.937412-0.298267-1.746995-0.511316-2.684407a91.951605 91.951605 0 0 0-0.596535-2.556579l-0.639144-2.641797a97.576077 97.576077 0 0 0-1.022632-3.834868s-0.426096-0.085219-0.426096-0.383487c-0.980022-6.221008-3.408771-12.484625-5.283596-18.620413-0.298267-0.809583-0.426096-1.406118-0.724363-2.428749a15.722957 15.722957 0 0 1-2.42875-7.15842c0-0.852193 0-1.533947 0.085219-2.38614l0.08522-1.10785c0.213048-1.15046 0.426096-2.34353 0.852192-3.493991l1.406119-4.601841c0-0.213048 0-0.724364 0.127828-0.724364h-0.127828c1.320899-7.243639 4.218354-13.379427 6.263617-19.941312 0-0.085219 0.213048-0.085219 0.213048-0.213048l0.426096-0.426097c0.085219-0.085219 0.170439-0.085219 0.170439-0.170438a11.291555 11.291555 0 0 0 2.258311-7.882784 13.890743 13.890743 0 0 0-1.15046-4.388793c-0.681754-1.832215-1.619166-3.57921-2.556579-5.411424-0.085219-0.213048-0.426096-0.426096-0.596535-0.511316-0.085219-0.127829-0.213048-0.213048-0.213048-0.340877a50.96113 50.96113 0 0 1-8.905415-15.126422l-0.681754-1.619167c-0.213048-0.213048-0.213048-0.426096-0.340877-0.724364l-0.08522-0.298267a5.113157 5.113157 0 0 1-0.298267-0.724364l0.085219 0.085219-0.085219-0.213048a11.760261 11.760261 0 0 1 0.511316-1.832214c0.170439-0.426096 0.426096-0.724364 0.596535-1.107851 0.213048-0.298267 0.511316-0.596535 0.852192-0.937412l0.383487-0.298268c2.769627-4.005306 5.326205-8.181051 8.394099-12.058528a11.078507 11.078507 0 0 0 2.130482-10.73763c-1.704386-5.837521-1.533947-5.96535 4.303574-8.095831 1.022631-0.426096 13.422037-5.113157 18.407365-6.647104l3.195723-1.23568 0.809583-0.298267a1774.47849 1774.47849 0 0 1 21.688307-8.095832c0.213048-0.085219 0.511316-0.085219 0.724364-0.085219 6.007959-3.067894 12.484625-5.027938 18.790852-7.15842 0.852193-0.298267 1.533947-0.639145 2.556578-0.852193 1.022631-0.809583 4.090526-1.491337 5.113157-2.34353 5.113157-1.619166 9.203682-3.962697 13.805524-4.985328a12.228967 12.228967 0 0 1 7.11581-2.854846z m-231.455569 25.693613a34.939905 34.939905 0 0 1 9.800217 1.533948l0.596535 0.170438c11.035897 3.408771 22.284842 6.050569 32.809424 11.078507 1.746995 0.809583 3.57921 1.619166 4.814889 3.280942 6.817543 4.900109 13.08116 10.524581 18.322146 17.256905 8.095832 10.439362 16.191663 20.963943 23.73357 32.937252-0.468706-0.127829-0.937412-0.340877-1.448728-0.553925v-0.04261a43.376614 43.376614 0 0 1-7.882784-4.388793 274.917402 274.917402 0 0 0-28.718898-15.169032 62.508343 62.508343 0 0 0-14.103791-4.260964 140.910082 140.910082 0 0 0-38.774773-1.746996c-3.57921 0.298267-7.243639 0-10.865458 0-2.641798 0-3.877477-1.278289-3.877477-3.920087 0-10.013266 0.511316-20.11175-2.556579-29.826748-0.639145-2.045263 0.596535-2.897456 2.34353-3.493991a47.722798 47.722798 0 0 1 15.850787-2.854846z m-117.176512 32.937253c18.023878-0.639145 34.599028 4.474012 49.725451 13.805523 5.624473 3.408771 10.780239 7.499297 15.467299 12.101138l0.596535 0.553926c5.198376 5.240986 9.800217 11.078507 13.677695 17.469952 3.408771 5.539253 2.471359 11.589822 1.320899 17.640392-3.067894 17.299514-13.464646 30.082406-25.224907 42.055715-11.291555 11.461993-25.395346 18.91868-38.476506 27.611047-18.535194 12.356796-39.712185 17.171685-61.272663 20.367409-26.929293 3.962697-54.242073 4.388793-81.213976 7.968002-9.800217 1.23568-19.770873 2.045263-29.57109 3.792258a45.592316 45.592316 0 0 0-28.974556 17.469953c-2.641798 3.57921-4.260964 7.968003-6.817543 12.910721a22.455281 22.455281 0 0 1 1.107851-16.788198 47.722798 47.722798 0 0 1 22.710938-23.009206c17.683001-9.331511 37.453874-11.163726 56.372555-15.978615 15.339471-3.877477 31.105038-6.135788 46.31668-10.311533a308.238141 308.238141 0 0 0 60.761347-23.435303c10.226314-5.326205 20.878724-10.737629 27.951925-20.665676a31.105038 31.105038 0 0 0 5.113157-23.73357c-0.213048-1.448728-0.639145-2.130482-1.150461-2.258311-0.511316-0.085219-1.23568 0.298267-2.130482 1.150461-7.669735 6.817543-15.637738 13.379427-24.330105 19.131728-13.635085 8.777586-28.676288 14.061181-44.228807 17.89605-24.713592 6.135788-49.682841 11.334164-75.163406 13.208988a206.230661 206.230661 0 0 0-52.793345 10.311533c-14.487278 5.027938-29.272823 10.013266-40.905255 20.878724-1.448728 1.278289-3.195723 2.42875-5.539253 4.175745l0.298267-1.619166-1.10785 0.809583v-0.213048c0.383487-0.255658 0.681754-0.553925 1.022631-0.724364a25.523175 25.523175 0 0 1 3.57921-8.521928l27.525828-43.547053a12.143748 12.143748 0 0 1 1.746995-2.258311c14.23162-14.018572 27.824095-28.846727 43.589662-41.118304 26.162319-20.452628 54.710779-36.431243 87.562812-43.461833 7.968003-1.746995 16.063835-2.982675 24.330105-2.982675 9.374121-0.085219 18.833461-0.426096 28.122363-0.724364z m-325.196778 0.937412c0.553925 0 1.23568 0.085219 2.045262 0.383487 1.23568 0.426096 2.641798 0.298267 4.005307 0.426096 5.411424 1.19307 11.035897 1.278289 16.447321 2.641798 0.511316 0 0.724364 0.085219 1.448728 0.426096a92.633359 92.633359 0 0 1 17.043856 2.42875c6.178398 0.852193 12.314186 1.533947 18.449975 2.556578 1.406118 0 2.641798-0.085219 3.962696 0.724364 0.213048 0 0.511316-0.085219 0.511316 0 7.15842 0.852193 12.782892 1.320899 18.96129 2.34353h-0.639145v0.213048c4.090526 0.511316 6.774933 1.022631 9.928047 1.533948 3.280942 0.511316 6.647104 1.320899 9.800217 1.320898h0.127829c0.298267 0 0.511316 0.127829 0.724364 0.127829l0.894802 0.213049c2.045263 0.085219 2.854846 1.19307 3.195723 2.982674 1.619166 9.672388 2.982675 19.387387 4.985328 29.102385 0 0.724364 0.426096 1.363509 0.340877 1.960044l0.809584 4.68706c0.894802 4.68706 1.704386 9.416731 2.641797 14.146401 0 0.426096 0 1.320899 0.127829 1.533947v0.426096c1.022631 6.093179 2.130482 11.632432 3.153114 17.469953v1.960043a73.160753 73.160753 0 0 0-12.782893 19.600435c-1.320899 3.195723-2.982675 6.476665-4.260964 9.629779l-0.255657 0.127829c-1.022631 3.238333-2.641798 6.391446-4.175745 9.50195-0.127829 0-0.213048 0.213048-0.298268 0.426096-0.213048 0.383487-0.340877 1.022631-0.511315 1.278289v0.127829a105.58669 105.58669 0 0 1-8.181051 17.683001c-0.340877 0.852193-1.022631 1.661776-1.022632 2.38614-1.022631 3.834868-1.960043 7.754955-3.920087 11.334165a32.255498 32.255498 0 0 1-3.153113 9.629778 89.565465 89.565465 0 0 1-5.539254 16.788199c-0.298267 0.809583-0.809583 1.533947-0.809583 2.34353l-0.085219 0.298268c-0.127829 0.298267-0.213048 0.852193-0.426096 1.235679a4.516622 4.516622 0 0 1-0.426097 1.278289l-0.085219 0.426097-1.619166 31.616353 0.894802 0.340877 4.005306-7.882783c1.320899-2.556578 2.34353-5.240986 3.792258-7.882784 0.809583-1.832215 2.130482-3.664429 2.130482-5.539253 3.067894-5.113157 5.837521-10.226314 8.990635-14.913374 0.340877-0.511316 0.937412-0.852193 1.278289-1.832215 2.641798-4.133135 5.709692-9.54456 8.862805-14.23162 1.107851-1.832215 2.300921-3.408771 3.323552-5.240986h-0.04261c0.724364-2.045263 1.832215-2.34353 2.769627-3.238332 0.894802-0.937412 1.406118-1.874824 3.451381-2.769627 0 0.809583 0.213048 1.533947 0.127829 2.258311l-0.127829 0.426096c0 0.383487-0.170439 0.766974-0.298268 1.19307l-0.085219 0.426097c-0.127829 0.298267-0.127829 0.511316-0.213048 0.809583a2.300921 2.300921 0 0 0-0.085219 0.852193c0 0.255658-0.213048 0.468706-0.127829 0.766973l-0.127829 0.639145h0.127829c-0.937412 6.135788-0.894802 13.08116-1.022632 19.515215 0 0.298267-0.213048 0.852193-0.213048 1.022632l0.213048-0.08522c0.852193 6.135788 1.832215 12.271577 2.641798 18.407365h-0.085219c0.127829 0 0.213048 1.320899 0.213048 1.832215 1.022631 6.135788 2.34353 12.356796 3.067894 18.620413l0.085219 0.724364c0.127829 0.426096 0.213048 0.724364 0.213049 1.10785 1.022631 4.942718 4.68706 8.30888 6.945371 12.612454 1.661776 2.34353 3.408771 5.113157 4.942718 7.15842h0.08522v0.085219c5.113157 4.516622 9.374121 9.118463 15.126422 13.208989 0.852193 0 1.661776 1.022631 2.471359 1.022631h-0.085219v0.511316c2.045263 0.213048 3.749648 1.832215 5.92274 1.235679a3.707039 3.707039 0 0 0 1.107851-0.511315c0.298267-0.213048 0.724364-0.426096 0.852193-0.724364 0.468706-0.937412-0.426096-1.448728-1.150461-1.746996-8.394099-5.326205-7.0732-14.061181-8.095831-22.199622h0.340877v-0.127829c2.045263 1.960043 3.451381 3.877477 5.198376 5.965349a4.260964 4.260964 0 0 0 1.022631 1.107851l2.130482 2.34353c1.448728 1.533947 2.982675 2.982675 4.601841 4.303574 1.661776 1.320899 3.408771 2.769627 5.326206 3.792258 0.852193 0.298267 1.661776 1.022631 2.386139 1.022631h-0.213048c6.135788 2.982675 11.461993 5.837521 17.043857 8.777586a6.391446 6.391446 0 0 1 3.408771 1.533947c2.045263 6.135788 4.474012 12.271577 3.877477 19.429997 0.213048 0 0.426096 0.724364 0.511316 1.278289a2.812236 2.812236 0 0 1-0.085219 1.278289c0.724364 5.96535 0.724364 11.973309-0.127829 17.896049a1.874824 1.874824 0 0 1-0.08522 1.661776c-0.127829 0.213048 0 0.298267-0.085219 0.511316h0.085219c0 5.96535-0.085219 11.84548-1.619166 17.683001-0.127829 5.837521-1.960043 11.504603-2.556578 17.299514 0 0.213048-0.127829 0.426096-0.213049 0.724364-0.340877 1.107851-0.852193 2.42875 1.619167 2.130482v-0.085219c5.539253-5.752302 11.078507-11.376774 16.191663-17.81083v0.426096c0.085219-2.045263 1.278289-3.110504 2.42875-4.090525 2.130482-2.087872 4.260964-5.539253 6.434055-8.521929 2.130482-2.982675 4.303574-5.837521 6.476666-8.777586l0.085219-0.511315c0.298267-1.022631 0.724364-1.661776 1.23568-1.960044 0.213048-0.085219 0.426096-0.213048 0.596535-0.213048H396.95397a5.667082 5.667082 0 0 1 2.130482 0.852193 35.57905 35.57905 0 0 1 3.280942 2.045263c6.135788 3.366162 13.08116 5.624473 17.683001 11.461993 0.511316 0.511316 1.107851 0.596535 1.619167 1.619166 2.130482 1.022631 4.090526 3.408771 5.667082 5.624473l1.619166 1.533947c0.085219 0.085219 0.213048 0.085219 0.298268 0.213048 8.095832 6.817543 8.692367 10.524581 2.854846 19.600435-0.170439 0.340877-0.511316 0.639145-0.681755 0.639145a10.055875 10.055875 0 0 1-1.022631 2.34353 9.203682 9.203682 0 0 1-0.852193 1.533947l-0.426096 0.724364c-1.491337 2.471359-3.153113 5.027938-3.749649 7.882783a18.876071 18.876071 0 0 0-0.511315 7.15842c1.107851 4.005306 2.130482 8.095832 2.982674 12.186357 0.511316 2.42875 1.022631 4.900109 1.19307 7.456687 0.852193 6.050569-2.045263 9.714998-7.158419 12.271577v-0.085219c-1.022631 0.085219-1.107851 0.724364-1.619167 1.022631a3.323552 3.323552 0 0 1-0.852192 0.596535 15.42469 15.42469 0 0 1-1.619167 1.107851 8.181051 8.181051 0 0 0-3.280942 3.707038c0 0.298267 0 0.213048-0.085219 0.426097-0.085219 0.170439 0 0.596535-0.08522 0.596535h0.298268v0.596535c-1.022631 2.982675-1.533947 5.113157-2.045263 6.647104-0.127829 0.426096-0.298267 0.724364-0.426096 1.022631-0.085219 0.340877-0.298267 0.511316-0.426097 0.724364-0.085219 0.213048-0.298267 0.426096-0.383486 0.511316a1.917434 1.917434 0 0 1-1.022632 0.511315h-0.298267a7.030591 7.030591 0 0 1-2.130482-0.511315c-1.448728-0.511316-3.323552-1.23568-5.880131-2.045263-0.170439-0.085219-0.383487-0.085219-0.468706-0.213048a1.065241 1.065241 0 0 0-0.511316-0.170439l-1.15046-0.511316h-0.426096v-0.426096h-0.08522c-3.067894-1.022631-5.96535-1.619166-8.692366-2.769627-1.619166-0.596535-3.408771-1.107851-5.113157-1.832214-2.130482-0.511316-4.260964-1.533947-6.434056-1.533947-5.96535-2.045263-11.973309-3.067894-17.72561-5.113157-0.468706 0-0.809583 0.085219-1.832215 0v0.085219c-4.090526-0.809583-7.371468-1.832215-11.248945-2.556578-3.792258-0.596535-5.198376-2.556578-4.81489-6.306227 0.213048-1.576557 0.127829-3.408771 0.127829-4.942718 0-0.511316-0.127829-0.724364-0.127829-1.704386-0.596535-1.065241-1.533947-2.258311-2.34353-3.62182a4.68706 4.68706 0 0 1-0.596535-1.10785c-0.511316-0.511316-1.533947-1.022631-1.533947-1.619167-1.022631-0.213048-0.639145-0.426096-0.937412-0.639144-3.153113-2.982675-2.258311-6.945371-1.832215-10.73763l0.08522-1.235679 0.340877-2.34353c0.085219-0.426096 0.085219-0.852193 0.170438-1.107851 1.661776-6.391446 2.045263-12.356796-4.814889-16.191664-0.809583-0.511316-1.278289-1.022631-2.34353-1.704385v0.170438a122.247059 122.247059 0 0 0-9.587169-7.03059c-0.511316-1.022631-0.639145-1.23568-1.661776-1.661776a60.420471 60.420471 0 0 1-13.208989-9.714998l-3.153113-1.704386h0.426096c-0.639145-1.065241-1.363509-0.937412-1.874824-1.448728-0.809583-0.596535-1.533947-1.022631-2.556579-1.661776-5.113157-4.388793-12.058528-8.479319-17.597781-13.464646-1.917434-0.639145-3.153113-2.130482-4.687061-3.408772v-0.170438c-5.411424-3.834868-10.737629-7.499297-16.063834-11.589822h0.127829c-0.639145 0-0.639145-0.511316-1.661776-1.022632-3.067894-1.533947-6.135788-4.090526-8.777586-6.135788-0.852193-1.022631-1.661776-1.022631-2.47136-1.022632-2.471359-2.045263-4.601841-2.982675-6.647104-4.814889-0.852193-0.511316-1.533947-1.107851-2.556578-1.704386a92.803798 92.803798 0 0 1-16.873418-12.314186l-0.511315-0.511315-0.937412-1.022632a8.010612 8.010612 0 0 1-1.619167-3.451381v0.809583c-3.707039-4.005306-6.135788-8.607147-9.203682-12.782892l-0.298268-0.639144a1.15046 1.15046 0 0 1-0.213048-0.596535 4.559232 4.559232 0 0 1-0.127829-1.107851 5.027938 5.027938 0 0 1 1.022632-2.258311c0-0.213048 0.127829-0.511316 0.127828-0.852193 1.022631-6.519275 4.601841-12.442015 7.15842-18.577803v-1.576557s0-0.937412-0.127829-1.363508l-0.170438-0.596535-0.213049-0.213049a1.619166 1.619166 0 0 0-0.724363-0.426096h-0.298268a5.198376 5.198376 0 0 0-2.471359 0.937412 13.294208 13.294208 0 0 0-2.34353 1.832215l-0.852193 0.639144a5.539253 5.539253 0 0 0-0.596535 0.809583l-0.298268 0.426097c0 0.085219-0.085219 0-0.085219 0 0 0.085219-0.127829 0-0.127829 0v0.085219c-2.045263 2.34353-5.113157 4.388793-7.754954 6.561885-0.511316 0.511316-1.448728 1.107851-1.448728 1.619166v-0.085219h-0.298268c-0.852193 1.022631-1.917434 1.022631-3.067894 0.511316l-13.208989-5.837521c-1.022631-0.511316-1.533947-1.619166-1.704385-2.641798a27.27017 27.27017 0 0 1-0.340877-1.363508l-0.298268-1.107851v0.213048c-1.533947-7.15842 0.937412-12.484625 2.258311-18.620413 0.085219-0.511316 0.213048-1.022631 0.213048-1.533947 1.022631-5.96535 1.406118-12.271577 3.153114-18.023878v-2.641798c-0.894802-6.561885-0.937412-12.99594-1.406118-19.557825l0.085219-3.366161c-0.596535-12.186357-1.406118-24.330105-1.832215-36.516463-0.937412-25.480565-2.982675-50.833301-2.258311-76.271257a27.099732 27.099732 0 0 0-3.153113-13.422036 83.855773 83.855773 0 0 0-4.218354-6.987981 11.248945 11.248945 0 0 1-2.045263-10.098485c1.533947-5.96535 2.684407-12.101138 3.792258-18.109098 0.383487-2.130482 0.937412-3.57921 2.556578-3.664429z m-7.073201 16.191663l0.213049 0.639145c0.213048 1.363509-0.298267 2.769627-0.894803 4.814889a4.985328 4.985328 0 0 1 0-3.664429 12.569844 12.569844 0 0 1 0.681754-1.746995z m456.562301 0.127829c5.539253-0.085219 10.950678 0.213048 16.234273 1.022632 9.331511 0.724364 17.896049 2.471359 23.435303 6.987981 4.005306 1.704386 8.010612 3.834868 11.888089 6.135788 9.374121 5.624473 18.790852 11.461993 28.207583 17.171685a16.57515 16.57515 0 0 1 5.027937 4.601841l9.50195 13.422037c0.511316 0.681754 1.320899 1.533947 0.639145 2.42875a1.619166 1.619166 0 0 1-0.852193 0.596535c-0.766974 0.170439-1.448728-0.085219-2.130482-0.468706-4.175745-2.38614-8.521928-4.601841-12.697673-6.987981a202.82189 202.82189 0 0 0-50.449815-19.557825c-4.559232-1.320899-8.862805-2.599188-13.762914-3.238333l-6.476665-1.448728c-0.170439 0.127829 0.213048 0.511316 0.724364 1.022631 0.213048 0.213048 0.426096 0.426096 0.511315 0.639145a5.88013 5.88013 0 0 0 1.746996 1.406118l0.852193 0.426097c9.672388 4.900109 26.0771 7.968003 38.007799 13.507256l2.471359 1.235679c6.647104 3.451381 12.697673 7.754955 18.748242 12.356796l11.419384 8.820196c17.214295 12.484625 27.696266 29.358042 32.809423 49.81067 0.127829 0.596535 0.340877 1.23568 0.426097 1.832214l0.426096 0.596535c0.852193 1.278289 1.022631 2.769627 0.724364 4.090526 0.085219 0.340877 0.085219 0.639145 0.213048 0.937412-0.213048 2.982675-2.556578 1.704386-3.920087 1.704386a106.69454 106.69454 0 0 1-25.991881-4.687061h-0.255657c-2.173092-0.681754-5.027938-1.704386-7.030591-2.300921-8.990634-3.195723-17.469953-6.945371-26.204929-10.141094-10.737629-3.792258-19.131729-11.121116-28.207582-17.597782a331.375176 331.375176 0 0 1-42.652251-34.769467 14.487278 14.487278 0 0 1-3.408771-4.516621 175.125624 175.125624 0 0 1-2.641798-6.519275l-1.533947-4.005307a46.359289 46.359289 0 0 0-1.022631-2.556578l-0.08522-0.213048c-0.127829-0.085219-0.127829-0.298267-0.127828-0.426097v-0.085219l-0.08522-0.426096a7.15842 7.15842 0 0 1 0.298268-5.198377c0.085219-0.213048 0.085219-0.426096 0.213048-0.596535l0.213048-0.724363 0.170439-0.596535c0.127829-0.213048 0.127829-0.553925 0.213048-0.724364l0.127829-0.639145 0.085219-0.724364 0.127829-0.596535 0.085219-0.724364 0.08522-0.596535 0.127829-0.724364 0.085219-0.596535 0.127829-0.724363c0-0.213048 0-0.426096 0.085219-0.639145 0-0.170439 0-0.511316 0.127829-0.681754v-11.334165c-0.127829-3.493991 1.107851-4.857499 4.601841-4.72967 3.408771 0.085219 6.902762-0.04261 10.354143-0.213048l3.195723 0.170438c1.704386-0.085219 3.451381-0.213048 5.198376-0.213048z m12.101138 22.668329a5.113157 5.113157 0 0 0 1.19307 0.340877H639.828922c-0.511316 0.340877-1.19307 0.213048-1.406118 0.852193-0.170439-0.852193-0.085219-1.15046 0.127829-1.19307z m37.496484 14.572497a8.777586 8.777586 0 0 0 0.511316 0.255658l0.127829 0.04261-0.639145-0.298268z m-81.299195 7.541907l0.08522 0.127829c0.298267 0.127829 0.596535 0.426096 0.937412 1.022631 3.238333 6.561885 7.754955 11.973309 12.782892 17.001247 5.283595 5.113157 11.035897 9.800217 16.57515 14.828155 11.419384 10.311533 23.094425 20.452628 34.854686 30.380674 7.584516 6.434056 16.702979 9.714998 26.417978 12.271576 22.071794 5.624473 44.697513 7.754955 67.110184 10.822849 5.92274 0.852193 11.248945 2.769627 15.936005 6.647104h-0.298267c0.426096 0.340877 0.724364 0.511316 1.022631 0.852193-12.612454-1.832215-25.139688-1.661776-37.752141-1.960044-13.805524-0.298267-27.31278 1.320899-40.905255 2.854846a42.013106 42.013106 0 0 1-14.31684-1.107851c-13.123769-2.982675-25.480565-8.30888-37.87997-13.507256-14.018572-5.96535-25.651004-15.041203-36.729511-25.054468-0.809583-0.852193-1.619166-1.533947-2.428749-2.343531a42.69486 42.69486 0 0 1-8.734977-12.143747l-0.085219-0.255658c-3.834868-9.033244-3.621819-19.089119-0.681754-30.167626 0.809583-2.982675 1.704386-5.96535 2.641798-8.905415 0.298267-0.980022 0.852193-1.491337 1.448727-1.363508z m-10.567191 50.279376c2.769627 9.928046 9.928046 16.873418 15.978616 24.415324l1.235679 1.661776 1.19307 1.619166a24.287495 24.287495 0 0 0 4.516622 4.005307c0.724364 0.511316 1.320899 0.894802 1.960044 1.406118l0.894802 0.724364a429.846056 429.846056 0 0 0 22.923987 16.873417l14.018572 9.757608c6.348836 4.388793 12.99594 8.095832 19.941312 11.334165 1.704386 0.852193 3.493991 1.533947 5.240985 2.34353 5.283595 2.258311 10.65241 4.218354 16.149054 5.965349l0.894803 0.298268c3.408771 0.894802 7.0732 1.19307 10.65241 1.619166 1.320899 0.085219 2.684407 0.298267 3.877477 0.426097a8.30888 8.30888 0 0 1 2.556579 1.022631 17.512562 17.512562 0 0 1 2.897455 2.130482c3.153113 2.854846 6.135788 6.945371 6.306227 9.416731 0 0.426096 0 0.724364-0.085219 1.022631-0.085219 0.213048-0.085219 0.298267-0.213048 0.426097-0.426096 0.681754-1.022631 1.278289-1.406119 2.045262-1.278289 2.130482-2.556578 4.260964-3.621819 6.519275l-0.468706 1.150461a13.251598 13.251598 0 0 0 0.085219 11.121116c4.900109-4.900109 9.288902-10.098485 12.484625-16.063835a48.532381 48.532381 0 0 0 3.664429-8.564538c0.426096-1.15046 0.127829-2.471359 0.426096-3.579209 0.426096-1.23568-1.022631-2.982675-0.426096-3.834868 0-0.04261 0.127829-0.04261 0.213048-0.170439a1.704386 1.704386 0 0 1 0.596535-0.298267c0.426096-0.085219 0.852193-0.213048 1.15046-0.213048 0.809583-0.085219 1.533947-0.213048 2.343531-0.213048 2.045263 0 4.005306 0.340877 5.965349 0.937412 1.19307 0.426096 0.809583 1.917434 0.681755 3.067894v0.213048c-0.213048 3.664429-1.704386 7.030591-3.067894 10.311533a23.605741 23.605741 0 0 1-1.022632 2.34353 71.584196 71.584196 0 0 1-8.181051 15.978616c-5.027938 6.647104-10.822849 12.868112-20.239579 13.208988h-2.684408c-1.619166 0-3.280942 0.426096-4.900108 0.511316a3.621819 3.621819 0 0 0-3.664429 2.428749c-0.724364 1.661776-1.661776 3.067894-2.47136 4.687061l-0.298267 0.724364a65.363189 65.363189 0 0 1-17.384733 24.287495c-3.408771 3.025284-6.987981 5.92274-10.652411 8.649757a83.088799 83.088799 0 0 1-19.941312 9.54456l-1.533947 0.596535-1.448727 0.639144-0.809584 0.298268c-0.426096 0.085219-0.937412 0.298267-1.320898 0.426096-1.533947 0.596535-2.769627 1.491337-1.960044 3.834868 0.852193 2.556578 2.684407 3.280942 5.027938 3.408771 0.511316 0 1.107851 0 1.704385-0.127829a26.11971 26.11971 0 0 0 6.391446-1.406118c2.045263-0.724364 4.090526-1.661776 6.221008-2.556578 1.448728-0.639145 2.854846-1.23568 4.388793-1.746996-1.23568 5.198376-1.917434 10.013266-3.57921 14.529888l-0.894802 2.258311a289.489899 289.489899 0 0 1-3.834868 8.181051c-0.766974 1.832215-1.704386 3.57921-2.641798 5.326205-4.900109 9.800217-10.439362 19.174338-17.256904 27.909315a71.669416 71.669416 0 0 1-15.169032 14.487277 168.47852 168.47852 0 0 1-4.388793 3.110504 118.795678 118.795678 0 0 1-16.191664 8.777586l-2.727017 1.278289-2.258311 0.852193-1.832214 0.766974c-1.704386 0.681754-3.493991 1.278289-5.240986 1.917434a113.938179 113.938179 0 0 1-7.15842 2.258311 206.571538 206.571538 0 0 1-24.287495 5.709691c-0.340877 0-0.553925 0.127829-0.852193 0.127829-2.34353 0.426096-4.601841 0.724364-6.945371 1.107851-2.471359 0.340877-4.942718 0.724364-7.499297 1.022631a91.866385 91.866385 0 0 1-25.778833-0.894802l-1.19307-0.298268a28.974556 28.974556 0 0 1-6.178398-2.556578c-2.641798-1.448728-5.113157-2.982675-7.754954-4.303574a73.629459 73.629459 0 0 1-5.539253-3.067894 79.594809 79.594809 0 0 1-6.817543-4.516622 26.929293 26.929293 0 0 1-9.928046-11.88809 76.441696 76.441696 0 0 0-3.920087-8.26627c-0.426096-0.852193-0.894802-1.533947-1.278289-2.258311a115.813004 115.813004 0 0 0-11.802871-15.637738 117.602609 117.602609 0 0 0-5.326205-6.050569c-0.894802-1.022631-1.704386-2.045263-2.641798-2.982675a301.25016 301.25016 0 0 0-11.078506-11.760261l-2.854846-2.854846a118.753069 118.753069 0 0 0-15.50991-12.868111 118.62524 118.62524 0 0 0-12.910721-8.181051l-2.556578-1.661776a67.323232 67.323232 0 0 1-26.844074-32.468546c-1.832215-3.962697-4.559232-5.198376-9.374121-5.283596a26.844074 26.844074 0 0 1-10.737629-2.045263l-0.08522-0.085219a19.472606 19.472606 0 0 1-5.624472-3.57921l-1.107851-0.681754c-0.937412-1.107851-1.619166-2.471359-2.471359-3.834868a225.618048 225.618048 0 0 1-16.447321-28.037143c0 0.127829 0.085219 0.213048 0.127829 0.340877l-0.255658-0.553925 0.127829 0.213048a160.723565 160.723565 0 0 0-3.110504-8.35149l-1.533947-3.664429a16.276883 16.276883 0 0 1-0.596535-6.561885l0.298267-1.320899c0.085219-0.213048 0.085219-0.426096 0.213049-0.639144a6.178398 6.178398 0 0 1 0.511315-1.23568 19.600435 19.600435 0 0 1 5.411425-6.007959 38.263457 38.263457 0 0 1 2.854846-2.130482c1.960043-1.448728 4.005306-2.684407 5.965349-4.005306 3.025284-1.874824 6.093179-3.57921 9.288902-5.240986 11.547213-5.96535 23.861399-10.141095 36.516462-13.379427 0.724364-0.213048 1.406118-0.340877 2.258311-0.511316 1.406118-0.340877 2.982675-0.426096 4.474012-0.639145 1.533947-0.085219 3.067894-0.213048 4.516622-0.213048l4.516622-0.085219c0.681754 0 1.533947 0 2.215702-0.085219a761.178623 761.178623 0 0 0 38.348676-2.684408c7.669735-0.724364 15.339471-1.533947 23.009206-2.34353a149.304181 149.304181 0 0 0 48.021065-13.805524c1.533947-0.852193 3.153113-1.533947 4.687061-2.34353l2.684407-1.448728c6.135788-3.280942 12.271577-6.434056 18.194317-9.928046 0.596535-0.852193 1.320899-1.107851 2.34353-1.406118l0.426096-0.127829v0.511316a2.556578 2.556578 0 0 1-0.852192 1.448727l-0.894803 0.596535c-5.96535 7.584516-14.103791 12.782892-21.176991 19.174339a17.683001 17.683001 0 0 0-2.130482 1.917434c-2.258311 1.832215-4.516622 3.792258-7.073201 5.83752 8.905415 0 17.469953-1.022631 25.480565-3.408771a70.476346 70.476346 0 0 0 37.027778-25.565784c4.388793-5.837521 8.394099-12.655063 11.84548-20.537847z m-139.120477 0.681754a53.006393 53.006393 0 0 1-14.615106 4.644451c-23.861399 5.92274-48.148894 9.374121-72.308561 13.890743a110.912895 110.912895 0 0 0-47.083653 20.750895c-0.809583 0.639145-1.704386 1.363509-2.641798 1.832214-1.107851 0.724364-1.661776 0.553925-1.832214-0.426096-0.127829-0.170439-0.127829-0.468706-0.127829-0.766974-0.426096-6.135788 1.448728-9.118463 7.0732-11.675041 7.669735-3.493991 15.339471-7.15842 23.009206-10.73763 10.013266-4.601841 20.750895-6.050569 31.616354-7.158419 16.873418-1.832215 33.746835-4.005306 50.705472-5.96535l22.327452-3.664429z m101.666603 53.049003l-1.10785 0.042609c-1.619166 0.426096-1.533947 2.130482-1.533948 3.408772 0.127829 4.260964 0.298267 8.564538 0.852193 12.868111 0.468706 4.68706 2.002653 9.331511 4.77228 13.08116a35.877318 35.877318 0 0 0 21.730917 14.23162c6.604494 1.533947 6.604494 1.619166 7.243639 8.521928 0.298267 2.940065 0.681754 5.581863 3.451381 7.243639 4.814889 2.854846 9.629779 5.837521 15.467299 6.221008 3.57921 0.298267 7.243639 0.511316 10.311533 2.897455a24.841421 24.841421 0 0 0 13.635085 4.175745c3.57921 0.298267 7.243639 0.426096 10.822849 1.022631 2.854846 0.511316 4.814889-0.426096 6.817543-2.130482 10.183704-8.394099 20.19697-16.916027 29.698919-26.290148-1.107851-1.278289-2.769627-1.661776-5.027937-0.511316a266.310255 266.310255 0 0 0-17.683001 9.50195 13.422037 13.422037 0 0 1-4.81489 2.045263 171.802072 171.802072 0 0 1-30.76416 3.153113 28.974556 28.974556 0 0 1-15.680348-5.539253c-2.854846-1.832215-5.709692-4.474012-6.221008-8.564538 1.533947-0.511316 2.982675 0.085219 4.388793 0.298268 5.411424 0.724364 10.737629 2.684407 16.276883 2.34353 13.294208-0.809583 25.778833-4.814889 38.263458-9.075854l12.058528-4.388793c1.832215-0.639145 2.34353-1.278289 0.724364-2.982674-1.960043-2.130482-4.090526-1.704386-6.263617-1.448728a239.679229 239.679229 0 0 1-79.680029-1.917434c-7.669735-1.448728-15.850786-1.960043-18.833461-11.504603-0.809583-2.556578-1.619166-5.113157-2.130482-7.754955a15.765567 15.765567 0 0 0-4.005306-7.243639 4.005306 4.005306 0 0 0-2.769627-1.704385z m-24.415324 2.769626c-2.045263 0-3.408771 2.130482-4.388793 3.962697-2.556578 4.388793-5.837521 8.35149-8.820196 12.442015-4.601841 6.263617-11.078507 7.584516-17.810829 6.561885a766.334389 766.334389 0 0 0-73.203363-7.669735c-1.278289-0.085219-2.471359-0.426096-3.493991 0.426096-7.797564 5.709692-15.637738 11.248945-20.580456 19.941312 0.298267 0.085219 0.639145 0.298267 0.852193 0.298267 0.809583-0.085219 1.491337-0.298267 2.34353-0.426096 12.655063-3.153113 25.864052-4.175745 39.286089-3.067894 16.958637 1.448728 33.746835 4.814889 50.620253 7.158419 2.258311 0.340877 4.516622 0.426096 6.647104 1.533947 5.113157 2.684407 7.669735 7.371468 9.629779 12.356796 2.982675 7.669735 3.834868 15.893396 4.388793 24.074447 0.426096 6.434056-0.937412 11.84548-6.135789 16.191664a23.69096 23.69096 0 0 0-8.521928 11.84548c6.561885 0 12.186357 1.107851 16.489931 6.647104 2.684407 3.451381 6.135788 6.348836 9.50195 9.288902a16.149054 16.149054 0 0 0 24.969249-3.451381c2.471359-4.005306 4.814889-8.095832 7.456688-11.973309 3.707039-5.411424 7.243639-11.248945 13.848133-13.635085 3.962697-1.278289 2.215701-3.238333 0.894802-4.900109-2.641798-3.366162-7.584516-3.451381-11.930699-0.809583-6.817543 4.090526-11.376774 10.141095-16.276883 15.978615-1.448728 1.704386-2.897456 3.451381-4.814889 4.900109-2.471359 1.704386-4.601841 1.832215-6.774933-0.426097-2.42875-2.42875-4.900109-4.985328-7.541907-7.158419-2.258311-1.832215-2.684407-3.493991-1.363508-6.135789a31.019818 31.019818 0 0 0 3.49399-17.597781c-1.23568-13.294208-3.408771-26.417977-12.782892-36.942559-1.022631-1.107851-1.022631-1.704386 0.426097-2.727017a40.053062 40.053062 0 0 0 17.384733-29.869358c0.298267-3.195723-0.298267-5.752302-2.854846-6.647104a3.195723 3.195723 0 0 0-0.937412-0.170439z m190.081608 1.491338c8.734976 0 16.489931 3.408771 24.117056 7.754955-0.213048 0-0.298267 0-0.511316 0.127828l1.320899 0.724364c-11.547213 1.704386-23.009206 2.556578-34.556418 1.27829-3.57921-0.383487-7.15842-1.107851-10.865459-0.980022-7.243639 0.213048-13.08116-3.57921-19.216948-6.860152h0.724364c-0.511316-0.298267-1.022631-0.511316-1.533947-0.852193 1.022631 0.127829 2.130482 0.127829 3.153114 0.213048 1.23568 0.127829 2.34353 0.426096 3.579209 0.639145 10.141095 2.130482 19.941312-0.852193 29.997187-1.832215a34.087713 34.087713 0 0 1 3.792259-0.213048z m-370.277779 30.423283a1.917434 1.917434 0 0 0-0.681754 0.170439c-2.130482 0.809583-4.175745 2.045263-4.77228 4." p-id="12339"></path></svg>