<?xml version="1.0" standalone="no"?><!DOCTYPE svg PUBLIC "-//W3C//DTD SVG 1.1//EN" "http://www.w3.org/Graphics/SVG/1.1/DTD/svg11.dtd"><svg t="1620272864249" class="icon" viewBox="0 0 1024 1024" version="1.1" xmlns="http://www.w3.org/2000/svg" p-id="21117" xmlns:xlink="http://www.w3.org/1999/xlink" width="200" height="200"><defs><style type="text/css"></style></defs><path d="M0 0v1024h1024V0z m476.194133 765.2352l-128.512-230.775467L274.773333 610.986667v154.146133H180.6336V258.7648H274.773333v233.028267L460.8 258.7648h113.7664l-164.625067 202.8544 177.493334 303.616z m367.172267-420.317867h-49.902933c-5.632 0-12.6976 0.375467-16.2816 3.9936-2.594133 2.6624-3.7888 7.338667-3.413334 13.960534v35.874133h69.666134v73.489067h-69.7344v293.000533h-90.146134v-293.000533H648.533333v-73.489067h34.986667v-35.396267c0-35.874133 10.410667-62.941867 30.9248-80.452266 19.7632-16.0768 44.373333-24.132267 73.659733-24.132267h55.227734z" fill="#6CA0F5" p-id="21118"></path></svg>