<?xml version="1.0" standalone="no"?><!DOCTYPE svg PUBLIC "-//W3C//DTD SVG 1.1//EN" "http://www.w3.org/Graphics/SVG/1.1/DTD/svg11.dtd"><svg t="1620287649073" class="icon" viewBox="0 0 1024 1024" version="1.1" xmlns="http://www.w3.org/2000/svg" p-id="3794" xmlns:xlink="http://www.w3.org/1999/xlink" width="200" height="200"><defs><style type="text/css"></style></defs><path d="M174.933333 268.373333c7.253333-7.68 19.626667-8.533333 27.306667-0.853333 2.133333 2.133333 179.2 164.266667 400.213333 207.786667 153.173333 30.293333 303.36 43.52 384.426667 49.493333-2.56-26.88-25.6-30.72-99.84-65.28-43.52-20.48-111.36-62.293333-182.613333-104.533333-43.52 35.413333-104.106667 58.453333-116.906667 63.146666-0.426667 0-0.853333 0.426667-1.28 0.426667-9.813333 3.413333-20.906667-1.706667-24.746667-11.52-3.413333-9.813333 1.706667-20.906667 11.52-24.746667 2.133333-0.853333 30.72-11.52 61.44-28.16 12.373333-6.826667 23.466667-13.653333 33.28-20.48-17.92-10.24-35.413333-20.48-52.48-29.866666-23.893333 11.946667-49.92 22.613333-73.813333 31.146666-43.093333 15.786667-78.933333 25.173333-81.92 25.6-10.24 2.56-20.906667-3.413333-23.466667-13.653333-2.56-10.24 3.413333-20.906667 13.653334-23.466667 0.853333-0.426667 63.573333-16.64 122.453333-42.24-28.586667-14.506667-55.04-26.453333-78.08-34.133333C384.426667 209.066667 238.933333 200.533333 156.586667 234.24L65.28 129.706667c-5.973333-6.826667-15.786667-7.68-23.04-2.133334-7.68 5.973333-8.533333 17.066667-2.133333 23.893334l91.733333 105.386666s-61.44 238.506667 265.386667 338.773334c287.573333 88.32 520.96 16.213333 576.426666-33.706667-84.48-5.973333-230.4-20.053333-378.88-49.066667-232.533333-45.653333-411.733333-210.346667-419.413333-217.6-7.253333-6.826667-7.68-19.2-0.426667-26.88z m0 0" fill="#00C1DE" p-id="3795"></path><path d="M248.746667 849.493333h-40.106667l-15.786667-41.386666h-72.533333l-14.933333 41.386666h-38.826667l70.826667-181.76h38.826666l72.533334 181.76z m-67.413334-71.68l-25.173333-67.413333-24.746667 67.413333h49.92z m0 0M267.093333 718.08h32.426667v19.2c4.266667-6.826667 9.813333-11.946667 17.066667-16.213333 7.253333-4.266667 15.36-6.4 23.893333-6.4 15.36 0 28.16 5.973333 38.826667 17.92 10.666667 11.946667 16.213333 28.586667 16.213333 50.346666 0 22.186667-5.546667 39.253333-16.213333 51.2-10.666667 12.373333-23.893333 18.346667-39.253334 18.346667-7.253333 0-14.08-1.28-19.626666-4.266667-5.973333-2.986667-11.946667-7.68-18.773334-14.933333v66.56h-34.986666l0.426666-181.76z m34.56 63.573333c0 14.933333 2.986667 25.6 8.96 32.853334 5.973333 7.253333 13.226667 10.666667 21.333334 10.666666s14.933333-3.413333 20.053333-9.813333c5.546667-6.4 8.106667-17.066667 8.106667-32 0-13.653333-2.986667-23.893333-8.106667-30.72-5.546667-6.826667-12.373333-10.24-20.48-10.24-8.533333 0-15.786667 3.413333-21.333333 9.813333-5.973333 6.826667-8.533333 16.64-8.533334 29.44z m0 0M449.28 758.186667l-31.573333-5.546667c3.413333-12.8 9.813333-22.186667 18.346666-28.16 8.533333-5.973333 21.76-9.386667 38.826667-9.386667 15.36 0 27.306667 1.706667 34.56 5.546667 7.68 3.84 12.8 8.533333 16.213333 14.08 2.986667 5.546667 4.693333 16.213333 4.693334 31.146667l-0.426667 40.533333c0 11.52 0.426667 20.053333 1.706667 25.6 1.28 5.546667 3.413333 11.52 6.4 17.493333H503.466667c-0.853333-2.133333-2.133333-5.546667-3.413334-10.24-0.426667-2.133333-0.853333-3.413333-1.28-4.266666-5.973333 5.973333-12.373333 10.24-19.2 13.226666-6.826667 2.986667-14.08 4.266667-21.76 4.266667-13.653333 0-24.32-3.84-32-11.093333-7.68-7.253333-11.52-16.64-11.52-27.733334 0-7.253333 1.706667-14.08 5.546667-20.053333 3.413333-5.973333 8.533333-10.24 14.933333-13.226667 6.4-2.986667 15.786667-5.973333 27.733334-8.106666 16.213333-2.986667 27.733333-5.973333 33.706666-8.533334v-3.413333c0-6.826667-1.706667-11.52-5.12-14.506667-3.413333-2.986667-9.386667-4.266667-18.773333-4.266666-6.4 0-11.093333 1.28-14.506667 3.84-3.413333 2.133333-6.4 6.4-8.533333 12.8z m46.933333 28.16c-4.266667 1.28-11.52 3.413333-21.333333 5.546666s-16.213333 4.266667-18.773333 5.973334c-4.693333 3.413333-6.826667 7.253333-6.826667 12.373333 0 4.693333 1.706667 8.96 5.546667 12.8 3.84 3.413333 8.106667 5.546667 14.08 5.546667 6.4 0 12.373333-2.133333 17.92-6.4 4.266667-2.986667 6.826667-6.826667 8.106666-11.52 0.853333-2.986667 1.28-8.533333 1.28-17.066667v-7.253333z m0 0M679.68 756.906667l-34.56 6.4c-1.28-6.826667-3.84-11.946667-7.68-15.36-4.266667-3.413333-9.386667-5.12-15.786667-5.12-8.533333 0-15.786667 2.986667-20.906666 8.96-5.12 5.973333-7.68 16.213333-7.68 30.293333 0 15.786667 2.56 26.88 7.68 33.28 5.12 6.4 12.373333 9.813333 21.333333 9.813333 6.826667 0 11.946667-1.706667 16.213333-5.546666s7.253333-10.24 8.96-19.626667l34.133334 5.973333c-3.413333 15.786667-10.24 27.733333-20.48 35.413334-10.24 8.106667-23.466667 11.946667-40.533334 11.946666-19.2 0-34.56-5.973333-46.08-18.346666-11.52-12.373333-17.066667-29.013333-17.066666-50.346667 0-21.76 5.546667-38.826667 17.066666-50.773333 11.52-11.946667 26.88-18.346667 46.506667-18.346667 16.213333 0 29.013333 3.413333 38.4 10.24 9.386667 6.4 16.213333 17.066667 20.48 31.146667z m0 0M740.693333 667.733333v66.986667c11.093333-13.226667 24.746667-19.626667 40.533334-19.626667 8.106667 0 15.36 1.28 21.76 4.266667 6.4 2.986667 11.52 6.826667 14.506666 11.52 3.413333 4.693333 5.546667 9.813333 6.826667 15.36 1.28 5.546667 1.706667 14.506667 1.706667 26.026667v77.226666h-34.986667v-69.546666c0-13.653333-0.853333-22.613333-2.133333-26.453334-1.28-3.84-3.84-6.826667-6.826667-8.96-3.413333-2.133333-7.68-3.413333-12.8-3.413333-5.973333 0-11.093333 1.28-15.36 4.266667-4.693333 2.986667-7.68 7.253333-9.813333 12.8-2.133333 5.546667-2.986667 14.08-2.986667 25.173333v66.133333h-34.986667v-181.76h34.56z m0 0M937.386667 807.68l34.56 5.973333c-4.266667 12.8-11.52 22.613333-21.333334 29.013334-9.813333 6.826667-21.76 9.813333-36.266666 9.813333-23.04 0-39.68-7.68-50.773334-22.613333-8.533333-11.946667-13.226667-27.306667-13.226666-45.226667 0-21.76 5.546667-38.826667 17.066666-51.2 11.52-12.373333 26.026667-18.346667 43.52-18.346667 19.626667 0 34.986667 6.4 46.506667 19.626667 11.52 12.8 16.64 32.853333 16.213333 59.306667h-87.466666c0.426667 10.24 2.986667 18.346667 8.533333 24.32 5.546667 5.546667 11.946667 8.533333 20.053333 8.533333 5.546667 0 10.24-1.28 13.653334-4.266667 4.266667-3.413333 7.253333-8.106667 8.96-14.933333z m2.133333-34.986667c-0.426667-10.24-2.986667-17.92-7.68-23.04-5.12-5.12-11.093333-7.68-17.92-7.68-7.68 0-14.08 2.986667-18.773333 8.106667-5.12 5.546667-7.253333 13.226667-7.253334 22.613333h51.626667z m0 0" fill="#00C1DE" p-id="3796"></path></svg>